<?xml version="1.0" encoding="UTF-8"?>
<svg version="1.1" xmlns="http://www.w3.org/2000/svg" width="1376" height="768">
<path d="M0 0 C454.08 0 908.16 0 1376 0 C1376 253.44 1376 506.88 1376 768 C921.92 768 467.84 768 0 768 C0 514.56 0 261.12 0 0 Z " fill="#FEFEFE" transform="translate(0,0)"/>
<path d="M0 0 C4.40189139 0.61749979 7.96764854 2.3212251 11.86328125 4.3515625 C13.29716144 5.08339097 14.73160322 5.81411978 16.16650391 6.54394531 C16.94205627 6.93972778 17.71760864 7.33551025 18.5166626 7.74328613 C23.02533488 10.02493782 27.56656329 12.24021002 32.10546875 14.4609375 C33.08508575 14.94073059 34.06470276 15.42052368 35.07400513 15.91485596 C37.09383948 16.90388126 39.11385072 17.89254537 41.1340332 18.88085938 C44.16617571 20.36456547 47.19737142 21.85019321 50.22851562 23.3359375 C60.81331215 28.51901187 71.41688581 33.65795162 82.06925964 38.70089722 C88.26715043 41.63685729 94.41770473 44.65724943 100.5390625 47.75 C106.21028227 50.61068043 111.8851612 53.46398211 117.5625 56.3125 C118.54758545 56.80919189 119.5326709 57.30588379 120.54760742 57.81762695 C127.57441386 61.34244365 134.64968809 64.75468993 141.74609375 68.13671875 C155.46563911 74.67657097 169.10125222 81.38449962 182.73876953 88.09326172 C195.18891778 94.21588483 207.65877673 100.28978647 220.18371582 106.25805664 C228.13082119 110.04957325 236.0052647 113.96851531 243.859375 117.94921875 C250.78645008 121.43967497 257.76356575 124.811373 264.765625 128.1484375 C276.06054947 133.53222748 287.30125267 139.02219521 298.53009033 144.54226685 C304.10457398 147.28238101 309.68118033 150.01816801 315.2578125 152.75390625 C316.3586618 153.29399826 317.45951111 153.83409027 318.59371948 154.39054871 C327.92764232 158.96817858 337.27188767 163.52422162 346.625 168.0625 C347.31633026 168.3980188 348.00766052 168.7335376 348.71994019 169.07922363 C355.64657951 172.44029625 362.57605201 175.79549395 369.5072937 179.14706421 C373.10939189 180.88896016 376.71106364 182.63173616 380.3125 184.375 C381.00561279 184.71043823 381.69872559 185.04587646 382.4128418 185.39147949 C391.73707682 189.90620435 401.0239171 194.4879513 410.27661133 199.14794922 C416.3137539 202.18037624 422.39416157 205.10876697 428.5 208 C439.07780709 213.01313898 449.53922224 218.24824806 460 223.5 C471.16668686 229.106095 482.34736745 234.66012937 493.64453125 240 C502.13768515 244.0289632 510.53245011 248.24905185 518.93084717 252.47055054 C528.3351349 257.19543537 537.77818685 261.82454883 547.29296875 266.32421875 C548.55947266 266.92363281 548.55947266 266.92363281 549.8515625 267.53515625 C550.65314789 267.90281601 551.45473328 268.27047577 552.28060913 268.64927673 C555 270 555 270 557.3175354 271.5249176 C567.53397688 277.81638787 578.422208 276.85780266 590.046875 276.8046875 C592.27176342 276.81595223 594.49663996 276.8298392 596.72149658 276.84622192 C602.54120362 276.88210515 608.36038365 276.88265297 614.18017578 276.87554932 C620.13323258 276.87463327 626.08609519 276.90753951 632.0390625 276.9375 C643.692826 276.9912172 655.3461134 277.00443114 667 277 C667 270.07 667 263.14 667 256 C670.17236808 257.26894723 672.72299181 258.30738596 675.57421875 259.99609375 C676.23365479 260.38490723 676.89309082 260.7737207 677.57250977 261.17431641 C678.27045654 261.59116699 678.96840332 262.00801758 679.6875 262.4375 C680.78179321 263.085979 680.78179321 263.085979 681.89819336 263.74755859 C690.31422275 268.75120068 698.66079655 273.86968302 707 279 C703.8801387 282.43314079 700.43370182 284.72207104 696.44140625 287.00390625 C695.50215553 287.55074318 695.50215553 287.55074318 694.54393005 288.10862732 C692.55345957 289.26579255 690.55815554 290.41430471 688.5625 291.5625 C687.22557512 292.33731058 685.88898312 293.11269582 684.55273438 293.88867188 C682.09264558 295.31685303 679.63036034 296.74110781 677.16625977 298.16235352 C675.1620599 299.32555904 673.17305676 300.51571016 671.20678711 301.74194336 C669 303 669 303 667 303 C667 296.4 667 289.8 667 283 C423.13 283 179.26 283 -72 283 C-72 281.35 -72 279.7 -72 278 C-48.9 278 -25.8 278 -2 278 C-2 278.66 -2 279.32 -2 280 C0.97 280 3.94 280 7 280 C7 279.34 7 278.68 7 278 C278.755 277.505 278.755 277.505 556 277 C540.92457113 269.78946146 540.92457113 269.78946146 525.84765625 262.58203125 C523.91921822 261.65896407 521.99082973 260.73579339 520.0625 259.8125 C519.10794922 259.35681641 518.15339844 258.90113281 517.16992188 258.43164062 C508.72943699 254.38759121 500.36258662 250.20193003 492 246 C490.63665522 245.31531275 489.27329267 244.63066091 487.90991211 243.94604492 C487.23413116 243.60670425 486.55835022 243.26736359 485.86209106 242.91773987 C469.88530799 234.89610739 453.8900416 226.93651042 437.72851562 219.29150391 C432.83503602 216.97524522 427.94865083 214.6441681 423.0625 212.3125 C421.75019409 211.68915771 421.75019409 211.68915771 420.41137695 211.05322266 C412.21866809 207.14612993 404.11023129 203.0745778 396 199 C371.00548977 186.4084688 371.00548977 186.4084688 345.82348633 174.19873047 C336.15524395 169.61587384 326.53842242 164.92807478 316.92184448 160.23800659 C308.2527715 156.01011594 299.56647769 151.82594035 290.82681274 147.74555969 C285.03439003 145.03683018 279.30953776 142.2028941 273.6015625 139.3203125 C267.88319598 136.43673567 262.16166969 133.55954103 256.4375 130.6875 C255.45273682 130.19096924 254.46797363 129.69443848 253.45336914 129.18286133 C246.41065002 125.65006607 239.31931066 122.22995175 232.20703125 118.83984375 C220.92255317 113.46007948 209.69203091 107.97451976 198.47320557 102.4593811 C192.88196154 99.71098011 187.28867535 96.966742 181.6953125 94.22265625 C180.59198578 93.68132553 179.48865906 93.13999481 178.35189819 92.58226013 C168.61149919 87.80532957 158.85638436 83.05925138 149.09368896 78.32809448 C140.20485852 74.02013937 131.32458579 69.69519322 122.453125 65.3515625 C121.45292328 64.86195541 120.45272156 64.37234833 119.42221069 63.86790466 C114.51774665 61.46684554 109.61402999 59.06427807 104.71142578 56.65942383 C95.70602154 52.24659605 86.68828914 47.86852161 77.59860229 43.63145447 C71.92550564 40.98490336 66.32243275 38.20855265 60.734375 35.38671875 C54.63887504 32.31341394 48.54014033 29.2466031 42.4375 26.1875 C41.53922485 25.73697266 41.53922485 25.73697266 40.62280273 25.27734375 C31.26054094 20.58551528 21.84913648 16.00516654 12.37084961 11.55151367 C7.44589016 9.22587632 2.68731359 6.7752989 -2 4 C-1.34 2.68 -0.68 1.36 0 0 Z " fill="#101010" transform="translate(499,183)"/>
<path d="M0 0 C2.49361571 1.20381448 4.68143083 2.45428722 7 4 C6.4473736 8.53823501 4.66944626 11.36718791 2.125 15.125 C-1.79500027 21.02844925 -5.45145905 27.05374362 -9 33.1875 C-9.72098877 34.4262085 -9.72098877 34.4262085 -10.45654297 35.68994141 C-10.90400879 36.46644043 -11.35147461 37.24293945 -11.8125 38.04296875 C-12.21082031 38.73414795 -12.60914063 39.42532715 -13.01953125 40.13745117 C-14.13456969 42.13356777 -14.13456969 42.13356777 -15 45 C-15.66 45 -16.32 45 -17 45 C-17.268125 45.86625 -17.53625 46.7325 -17.8125 47.625 C-18.97853986 50.93900802 -20.38034211 53.88527329 -22 57 C-29.04538558 70.84213283 -35.45741943 84.93640911 -40.66137695 99.57543945 C-42.15942269 103.77974812 -43.76598246 107.83981317 -45.6875 111.875 C-47.94643688 116.65776539 -49.49036135 121.51111291 -50.9765625 126.58203125 C-52.02078767 130.06942448 -53.18647175 133.49682427 -54.375 136.9375 C-57.104779 145.05984856 -59.3315872 153.2958697 -61.53515625 161.57421875 C-62.39046921 164.78122498 -63.2756693 167.97051608 -64.24609375 171.14453125 C-67.43085469 181.68243872 -69.58242253 192.39251907 -71.6875 203.1875 C-71.83806854 203.9545929 -71.98863708 204.72168579 -72.14376831 205.51202393 C-73.90752297 214.54533566 -75.39783706 223.54497631 -76.54589844 232.67871094 C-76.93181653 235.50130754 -77.41321151 238.25012728 -78.00390625 241.03515625 C-79.35315989 247.44970552 -80.14389211 253.93478008 -80.9375 260.4375 C-81.06481506 261.46809036 -81.06481506 261.46809036 -81.19470215 262.51950073 C-83.60569757 282.28296287 -84.72253503 302.13541969 -86 322 C-62.9 322 -39.8 322 -16 322 C-16 319.03 -16 316.06 -16 313 C-13.36 313 -10.72 313 -8 313 C-8 315.97 -8 318.94 -8 322 C173.5 321.67 355 321.34 542 321 C542.33 321.66 542.66 322.32 543 323 C361.5 323 180 323 -7 323 C-7 323.66 -7 324.32 -7 325 C-9.97 325 -12.94 325 -16 325 C-16 324.34 -16 323.68 -16 323 C-39.1 323 -62.2 323 -86 323 C-86.44312915 367.05367004 -86.44312915 367.05367004 -84 411 C-83.92223328 411.83990479 -83.84446655 412.67980957 -83.76434326 413.54516602 C-80.30204615 450.62438941 -75.338501 487.47630773 -66.1875 523.625 C-66.01192566 524.32131531 -65.83635132 525.01763062 -65.65545654 525.73504639 C-60.91695262 544.50131912 -55.49247216 562.90688136 -49.25048828 581.22705078 C-48.83009277 582.46567871 -48.40969727 583.70430664 -47.9765625 584.98046875 C-47.59580566 586.09317139 -47.21504883 587.20587402 -46.82275391 588.35229492 C-46 591 -46 591 -46 593 C-51.75 596 -51.75 596 -54 596 C-54.32274902 595.05680908 -54.64549805 594.11361816 -54.97802734 593.1418457 C-56.18067369 589.62838128 -57.3850088 586.11549765 -58.58984375 582.6027832 C-59.11015857 581.08503651 -59.63002092 579.56713462 -60.14941406 578.04907227 C-60.89788596 575.86172768 -61.64800614 573.67495424 -62.3984375 571.48828125 C-62.6287265 570.81412674 -62.8590155 570.13997223 -63.09628296 569.44538879 C-64.02898535 566.73181085 -64.98244975 564.04305743 -66.06567383 561.38549805 C-67.1033168 558.73621414 -67.83904374 556.09839122 -68.55078125 553.34375 C-68.83453613 552.24973877 -69.11829102 551.15572754 -69.41064453 550.02856445 C-69.70825684 548.86413818 -70.00586914 547.69971191 -70.3125 546.5 C-70.62300293 545.29110107 -70.93350586 544.08220215 -71.25341797 542.83666992 C-73.95915167 532.25190114 -76.58091625 521.65400618 -79 511 C-79.19803223 510.14100098 -79.39606445 509.28200195 -79.60009766 508.39697266 C-86.21408868 479.42418012 -90.37412105 449.7698234 -92.81134033 420.16488647 C-93.02676774 417.69283781 -93.27266534 415.22447432 -93.51708984 412.75512695 C-95.1449631 395.53846702 -95.24413161 378.42307237 -95.1373291 361.15185547 C-95.11270544 356.72934824 -95.10399266 352.30678089 -95.09242249 347.88422394 C-95.07339575 341.25603024 -95.03493642 334.6282143 -95 328 C-109.52 328 -124.04 328 -139 328 C-139 326.02 -139 324.04 -139 322 C-124.48 322 -109.96 322 -95 322 C-95 316.39 -95 310.78 -95 305 C-94.67 303.68 -94.34 302.36 -94 301 C-93.77212835 298.54193343 -93.58093826 296.09525561 -93.421875 293.6328125 C-93.31534244 292.11095157 -93.20804776 290.58914385 -93.10009766 289.06738281 C-93.04364075 288.26320923 -92.98718384 287.45903564 -92.92901611 286.63049316 C-90.36051968 250.68205177 -85.22488126 215.35333614 -76.56884766 180.34619141 C-76.03532031 178.14567732 -75.53179568 175.9412879 -75.04296875 173.73046875 C-70.95311101 155.30534268 -64.89662666 137.46871 -58.8125 119.625 C-58.55460693 118.86552063 -58.29671387 118.10604126 -58.03100586 117.32354736 C-55.54488326 110.01843641 -53.05945656 102.77258957 -49.7980957 95.76806641 C-48.71263332 93.36338039 -47.94356875 90.90019514 -47.1875 88.375 C-43.40935661 76.76125185 -37.51616159 65.88703543 -32.015625 55.01171875 C-30.70749179 52.42234035 -29.42653655 49.82271604 -28.171875 47.20703125 C-20.19984379 30.695956 -10.81477337 14.81092994 0 0 Z " fill="#EDBC24" transform="translate(513,138)"/>
<path d="M0 0 C4.31802327 1.43934109 7.25036048 2.54782837 11.01171875 4.79296875 C11.93001465 5.33800049 12.84831055 5.88303223 13.79443359 6.44458008 C14.74914551 7.01974365 15.70385742 7.59490723 16.6875 8.1875 C18.15437256 9.06281372 18.15437256 9.06281372 19.65087891 9.95581055 C26.17177946 13.86042108 32.64967992 17.82215784 39 22 C36.27480878 24.90846317 33.63186194 26.99944884 30.18359375 28.98828125 C28.79672363 29.79616089 28.79672363 29.79616089 27.38183594 30.62036133 C26.41020508 31.17876709 25.43857422 31.73717285 24.4375 32.3125 C22.45093654 33.46722645 20.46524914 34.62346144 18.48046875 35.78125 C17.05806885 36.61076172 17.05806885 36.61076172 15.60693359 37.45703125 C11.60037623 39.82839691 7.70291725 42.34466964 3.828125 44.92578125 C2 46 2 46 0 46 C0 39.07 0 32.14 0 25 C-203.28 25 -406.56 25 -616 25 C-616 23.35 -616 21.7 -616 20 C-412.72 20 -209.44 20 0 20 C0 13.4 0 6.8 0 0 Z " fill="#040505" transform="translate(1054,493)"/>
<path d="M0 0 C1.65 0 3.3 0 5 0 C6 1 6 1 6.1241985 2.83621031 C6.12381878 3.64691322 6.12343906 4.45761612 6.12304783 5.29288578 C6.12503888 6.22494345 6.12702993 7.15700112 6.12908131 8.11730295 C6.12616847 9.15327331 6.12325563 10.18924366 6.12025452 11.25660706 C6.12110894 12.34776996 6.12196337 13.43893287 6.12284368 14.56316131 C6.1245017 18.24988748 6.11897187 21.93656898 6.11352539 25.62329102 C6.11324356 28.25394693 6.11340117 30.88460292 6.1139679 33.51525879 C6.11449332 39.19452446 6.11134461 44.87377867 6.10573006 50.55304146 C6.09761753 58.76439312 6.09500009 66.97573921 6.09374207 75.18709444 C6.09155116 88.50811493 6.08489002 101.82912931 6.07543945 115.15014648 C6.06626634 128.09350555 6.05918501 141.03686295 6.05493164 153.98022461 C6.05466892 154.77748971 6.05440619 155.5747548 6.05413551 156.39617945 C6.05283051 160.39565583 6.05156679 164.39513222 6.05032361 168.39460862 C6.03994978 201.59641019 6.02233041 234.79820428 6 268 C4.02 268 2.04 268 0 268 C0 179.56 0 91.12 0 0 Z " fill="#2B2A2A" transform="translate(362,193)"/>
<path d="M0 0 C17.28947368 0 17.28947368 0 23.9375 5.375 C26.98577018 9.40560309 26.68359341 14.07097181 26.484375 18.9296875 C25.75780615 23.53519652 24.58682427 25.03697126 21 28 C15 31 15 31 0 31 C0 20.77 0 10.54 0 0 Z " fill="#4A73A3" transform="translate(67,420)"/>
<path d="M0 0 C2.51625 -0.0825 5.0325 -0.165 7.625 -0.25 C8.79603271 -0.30462402 8.79603271 -0.30462402 9.99072266 -0.36035156 C15.1007707 -0.4407839 17.951248 0.63642141 22 4 C23.41000664 6.82001327 23.24548451 8.87007255 23 12 C20.73529412 16.63235294 20.73529412 16.63235294 18 18 C19.23035145 22.06962402 20.78976481 25.38325151 23 29 C23 29.66 23 30.32 23 31 C19.875 31.625 19.875 31.625 16 31 C13.25048211 27.70773563 10 23.42493518 10 19 C9.01 19 8.02 19 7 19 C7 22.96 7 26.92 7 31 C4.69 31 2.38 31 0 31 C0 20.77 0 10.54 0 0 Z " fill="#678EBB" transform="translate(731,549)"/>
<path d="M0 0 C2.4375 1.5 2.4375 1.5 4 3 C4.33 2.34 4.66 1.68 5 1 C6.98 1 8.96 1 11 1 C11 8.92 11 16.84 11 25 C7.33333333 25 3.66666667 25 0 25 C-1.7015625 25.12375 -1.7015625 25.12375 -3.4375 25.25 C-7.68438319 24.95197311 -9.0683021 24.0154607 -12 21 C-14.7055418 16.54772245 -14.68206544 12.07029371 -14 7 C-10.41971226 1.07400649 -6.84228572 -0.6002005 0 0 Z " fill="#5E84AF" transform="translate(123,426)"/>
<path d="M0 0 C3.375 1.5 3.375 1.5 6 3 C6.515625 2.505 7.03125 2.01 7.5625 1.5 C10.97904264 -0.60248778 13.04648052 -0.54531303 17 0 C19.97046873 1.79023785 22.42502414 3.85004828 24 7 C24.08308638 8.37548156 24.10736016 9.75485796 24.09765625 11.1328125 C24.09443359 11.93847656 24.09121094 12.74414062 24.08789062 13.57421875 C24.07532227 14.83685547 24.07532227 14.83685547 24.0625 16.125 C24.05798828 16.97449219 24.05347656 17.82398438 24.04882812 18.69921875 C24.03702874 20.79950909 24.01909306 22.8997633 24 25 C21.69 25 19.38 25 17 25 C16.505 16.09 16.505 16.09 16 7 C13.03 6.505 13.03 6.505 10 6 C6.97906785 9.02093215 7.53323166 12.56372072 7.375 16.625 C7.33632812 17.42679687 7.29765625 18.22859375 7.2578125 19.0546875 C7.16346069 21.03607556 7.08063785 23.01800645 7 25 C5.02 25 3.04 25 1 25 C0.95101562 23.79601562 0.90203125 22.59203125 0.8515625 21.3515625 C0.77653657 19.77601802 0.70098867 18.20049834 0.625 16.625 C0.5940625 15.8309375 0.563125 15.036875 0.53125 14.21875 C0.48183579 9.63332625 0.48183579 9.63332625 -2 6 C-4.5 5.66666667 -4.5 5.66666667 -7 6 C-10.02093215 9.02093215 -9.46676834 12.56372072 -9.625 16.625 C-9.66367188 17.42679687 -9.70234375 18.22859375 -9.7421875 19.0546875 C-9.83653931 21.03607556 -9.91936215 23.01800645 -10 25 C-11.98 25 -13.96 25 -16 25 C-16 17.08 -16 9.16 -16 1 C-13.33333333 1 -10.66666667 1 -8 1 C-5.16870331 -0.41564834 -3.14918438 -0.24224495 0 0 Z " fill="#5279A7" transform="translate(156,426)"/>
<path d="M0 0 C2.68125 -0.103125 5.3625 -0.20625 8.125 -0.3125 C9.37434326 -0.38078003 9.37434326 -0.38078003 10.64892578 -0.45043945 C14.6769678 -0.52492603 17.28642829 -0.23021077 20.515625 2.30078125 C23 5 23 5 23.625 8.5 C22.91751617 12.46190947 21.86745069 14.2168861 19 17 C18.34 17 17.68 17 17 17 C18.98 21.29 20.96 25.58 23 30 C20.69 30 18.38 30 16 30 C14.00390625 27.8828125 14.00390625 27.8828125 12.5625 25.125 C11.82193359 23.76761719 11.82193359 23.76761719 11.06640625 22.3828125 C10 20 10 20 10 18 C8.68 18 7.36 18 6 18 C6 21.96 6 25.92 6 30 C4.02 30 2.04 30 0 30 C0 20.1 0 10.2 0 0 Z " fill="#4979AF" transform="translate(791,242)"/>
<path d="M0 0 C2.31 0 4.62 0 7 0 C9.6625776 6.28821519 12.27887106 12.5961887 14.8125 18.9375 C15.23144531 19.97777344 15.65039062 21.01804687 16.08203125 22.08984375 C16.97596097 24.92379116 17.18988693 27.05403993 17 30 C15.02 30 13.04 30 11 30 C10.505 27.525 10.505 27.525 10 25 C5.71 25 1.42 25 -3 25 C-3.33 26.65 -3.66 28.3 -4 30 C-6.31 30 -8.62 30 -11 30 C-9.92444793 26.68492362 -8.83811307 23.37347264 -7.75 20.0625 C-7.44964844 19.13630859 -7.14929688 18.21011719 -6.83984375 17.25585938 C-4.88601191 11.33200753 -2.65537748 5.64485797 0 0 Z " fill="#4471AE" transform="translate(387,105)"/>
<path d="M0 0 C3.60747962 1.37740131 6.6498786 2.8665048 9 6 C9 6.99 9 7.98 9 9 C2.48137536 9.3760745 2.48137536 9.3760745 0 7.4375 C-2.07218203 5.63885815 -2.07218203 5.63885815 -5.5625 6.125 C-8.8634995 6.96525442 -10.06290701 7.30959307 -12 10 C-13.2238892 12.44777839 -13.016364 13.73390541 -12.75 16.4375 C-12.68296875 17.21996094 -12.6159375 18.00242187 -12.546875 18.80859375 C-11.88679579 21.45362543 -11.21278643 22.42015023 -9 24 C-6.82504919 24.47307456 -6.82504919 24.47307456 -4.5 24.375 C-3.7265625 24.38273437 -2.953125 24.39046875 -2.15625 24.3984375 C0.51056642 23.9056562 1.36181317 23.1276451 3 21 C3.33 20.01 3.66 19.02 4 18 C0.7 18 -2.6 18 -6 18 C-6 16.68 -6 15.36 -6 14 C-0.72 14 4.56 14 10 14 C10 22.17241379 10 22.17241379 7 26 C2.51119699 30.03992271 -0.83111669 31.3781272 -6.9453125 31.27734375 C-11.6322354 30.64469826 -14.5198553 27.43839299 -17.875 24.375 C-20.7538467 19.80271407 -20.78054506 16.26653479 -20 11 C-16.54652955 1.18487346 -9.48113872 -0.83014579 0 0 Z " fill="#4D79B0" transform="translate(428,105)"/>
<path d="M0 0 C24.75 0 49.5 0 75 0 C75.495 2.475 75.495 2.475 76 5 C74.33834793 6.66165207 72.3348397 6.11959725 70.11598206 6.12442017 C69.41827194 6.12082489 68.72056183 6.11722961 68.00170898 6.11352539 C66.90421326 6.11374443 66.90421326 6.11374443 65.7845459 6.1139679 C63.35503216 6.11326867 60.92559417 6.10547585 58.49609375 6.09765625 C56.81600486 6.0957921 55.13591543 6.09436819 53.45582581 6.09336853 C49.02526357 6.08954307 44.5947339 6.07971256 40.16418457 6.06866455 C35.64657024 6.05845103 31.12895066 6.05387104 26.61132812 6.04882812 C17.74087107 6.03809031 8.87043824 6.02101356 0 6 C0 4.02 0 2.04 0 0 Z " fill="#2F2F30" transform="translate(371,174)"/>
<path d="M0 0 C0.33 0 0.66 0 1 0 C0.99777939 0.97639435 0.99555878 1.9527887 0.99327087 2.95877075 C0.97298186 12.16920618 0.95800009 21.37963707 0.94818783 30.5900898 C0.94297364 35.32504331 0.93590258 40.05997876 0.92456055 44.79492188 C0.91367963 49.36606905 0.90771212 53.93719887 0.90512276 58.508358 C0.90327789 60.25062203 0.89967535 61.99288513 0.89426994 63.73514175 C0.88699045 66.17908009 0.88601197 68.62294706 0.88647461 71.06689453 C0.88287933 71.78403122 0.87928406 72.50116791 0.87557983 73.24003601 C0.88381219 77.27018158 1.25330728 81.04305126 2 85 C2.13874458 86.9015102 2.24335298 88.80577233 2.31640625 90.7109375 C2.3793689 92.320896 2.3793689 92.320896 2.44360352 93.96337891 C2.48283936 95.08921387 2.5220752 96.21504883 2.5625 97.375 C2.6049585 98.52790527 2.64741699 99.68081055 2.69116211 100.86865234 C2.99410221 109.58381851 3.11854513 118.28034732 3 127 C2.67 127 2.34 127 2 127 C-0.92997389 103.7913859 -1.26832455 80.66742704 -1.1875 57.3125 C-1.18493195 56.56520252 -1.18236389 55.81790504 -1.17971802 55.04796219 C-1.14523048 45.69835021 -1.07592024 36.34943675 -1 27 C-15.52 27 -30.04 27 -45 27 C-45 25.02 -45 23.04 -45 21 C-30.48 21 -15.96 21 -1 21 C-1 15.39 -1 9.78 -1 4 C-0.67 2.68 -0.34 1.36 0 0 Z " fill="#C2A54F" transform="translate(419,439)"/>
<path d="M0 0 C4.08998175 1.80720124 6.66247347 4.19069751 9 8 C9 10.31 9 12.62 9 15 C3.06 15 -2.88 15 -9 15 C-8.01 16.32 -7.02 17.64 -6 19 C-2.55945686 19.26602255 -2.55945686 19.26602255 1.1875 18.75 C3.09595703 18.55664062 3.09595703 18.55664062 5.04296875 18.359375 C6.01878906 18.24078125 6.99460938 18.1221875 8 18 C5.2734375 22.8359375 5.2734375 22.8359375 2.8125 24.3125 C-2.25834785 25.55204059 -6.26863923 26.01623349 -10.875 23.3125 C-14.66566944 19.18735972 -15.41464655 15.38998855 -15.25 9.92578125 C-14.72288736 5.86536671 -12.85408471 3.68801268 -9.75 1.1875 C-6.23330403 -0.33107326 -3.80039173 -0.40718483 0 0 Z " fill="#628CBC" transform="translate(199,426)"/>
<path d="M0 0 C3.10118526 2.04396302 4.32061104 3.3978486 5.75 6.8125 C5.75 8.7925 5.75 10.7725 5.75 12.8125 C-2.665 13.3075 -2.665 13.3075 -11.25 13.8125 C-10.59 15.1325 -9.93 16.4525 -9.25 17.8125 C-6.91705225 17.85491723 -4.58297433 17.85342937 -2.25 17.8125 C-1.92 17.4825 -1.59 17.1525 -1.25 16.8125 C0.74958364 16.77169217 2.75045254 16.76995644 4.75 16.8125 C3.7695412 19.39734592 2.81077857 20.76093031 0.6875 22.5625 C-3.36889097 24.28862382 -6.90458749 24.522277 -11.25 23.8125 C-14.34098636 22.03682699 -15.77950156 20.61906876 -17.5625 17.5625 C-18.76273819 12.76154723 -19.00769838 8.6070488 -17.0625 4 C-12.2826744 -1.76875503 -6.95098753 -2.53978391 0 0 Z " fill="#4A76AB" transform="translate(246.25,427.1875)"/>
<path d="M0 0 C2.8100346 1.79363911 4.50940468 3.01880935 6 6 C6.86168299 12.03178093 5.07242659 15.23781595 1.66796875 19.9765625 C-0.31108388 22.37738045 -2.42374484 24.25723915 -5 26 C-1.04 26.33 2.92 26.66 7 27 C7 28.98 7 30.96 7 33 C-0.26 33 -7.52 33 -15 33 C-15 27 -15 27 -13.20703125 25.12890625 C-12.41683594 24.61199219 -11.62664062 24.09507812 -10.8125 23.5625 C-6.64538377 20.57190397 -3.13692106 17.76617198 -1 13 C-0.58008019 9.20595397 -0.58008019 9.20595397 -1 6 C-3.37305578 5.58219121 -3.37305578 5.58219121 -6 6 C-6.474375 6.825 -6.94875 7.65 -7.4375 8.5 C-7.953125 9.325 -8.46875 10.15 -9 11 C-12.1875 11.3125 -12.1875 11.3125 -15 11 C-14.80839429 6.88047733 -14.22298348 5.25017659 -11.4375 2.125 C-7.57518144 -0.74388566 -4.70314924 -0.67187846 0 0 Z " fill="#4E79AC" transform="translate(309,418)"/>
<path d="M0 0 C3.16025526 1.80586015 4.57721965 2.82922364 5.8125 6.25 C5.874375 6.8275 5.93625 7.405 6 8 C3.69 8 1.38 8 -1 8 C-1.33 7.34 -1.66 6.68 -2 6 C-3.98 6 -5.96 6 -8 6 C-7.88266728 8.44588949 -7.88266728 8.44588949 -7 11 C-4.8108583 12.36521094 -4.8108583 12.36521094 -2.125 13.125 C3.77207999 15.06776979 3.77207999 15.06776979 6 18 C6.5 21.375 6.5 21.375 6 25 C3.5625 27.875 3.5625 27.875 1 30 C0.67 30.33 0.34 30.66 0 31 C-3.78484046 31.55776596 -7.45745986 31.78063772 -10.9296875 30.0234375 C-12.5625 28.75 -12.5625 28.75 -15 26 C-15 24.68 -15 23.36 -15 22 C-12.125 21.8125 -12.125 21.8125 -9 22 C-8.34 22.99 -7.68 23.98 -7 25 C-4.41619823 25.25030977 -4.41619823 25.25030977 -2 25 C-1.67 23.35 -1.34 21.7 -1 20 C-2.13888672 19.61908203 -2.13888672 19.61908203 -3.30078125 19.23046875 C-4.29464844 18.88628906 -5.28851563 18.54210937 -6.3125 18.1875 C-7.29863281 17.85105469 -8.28476562 17.51460937 -9.30078125 17.16796875 C-11.93594713 16.02771608 -13.33977991 15.31658617 -15 13 C-15.67876033 9.92860949 -15.56836931 7.08702548 -15 4 C-11.2924508 -1.06698391 -5.78444649 -0.94982701 0 0 Z " fill="#4C79B1" transform="translate(366,105)"/>
<path d="M0 0 C6.93 0 13.86 0 21 0 C21 6.7489044 21 6.7489044 18.41015625 10.453125 C17.87326172 11.236875 17.33636719 12.020625 16.78320312 12.828125 C16.21537109 13.62734375 15.64753906 14.4265625 15.0625 15.25 C13.94867549 16.85899906 12.83536865 18.46835665 11.72265625 20.078125 C11.22515869 20.78356445 10.72766113 21.48900391 10.21508789 22.21582031 C8.95111727 23.9862377 8.95111727 23.9862377 8 26 C12.29 26 16.58 26 21 26 C21 27.65 21 29.3 21 31 C14.07 31 7.14 31 0 31 C0 24.25125791 0 24.25125791 2.58984375 20.765625 C3.12673828 20.02699219 3.66363281 19.28835938 4.21679688 18.52734375 C4.78462891 17.77582031 5.35246094 17.02429688 5.9375 16.25 C7.0515271 14.73492314 8.1648433 13.21932322 9.27734375 11.703125 C10.02359009 10.70780762 10.02359009 10.70780762 10.78491211 9.69238281 C12.06206528 8.00784499 12.06206528 8.00784499 13 6 C8.71 6 4.42 6 0 6 C0 4.02 0 2.04 0 0 Z " fill="#5580B2" transform="translate(1129,504)"/>
<path d="M0 0 C1.4540625 0.0309375 1.4540625 0.0309375 2.9375 0.0625 C1.45165486 9.30379203 -0.80371316 18.318159 -3.125 27.375 C-3.67364762 29.52147197 -4.22114815 31.66821278 -4.76573181 33.8157196 C-5.25657967 35.75063289 -5.75133832 37.68455287 -6.24633789 39.6184082 C-6.99036085 42.75808271 -7.57620225 45.87393755 -8.0625 49.0625 C-10.3725 49.0625 -12.6825 49.0625 -15.0625 49.0625 C-14.85496094 48.19496094 -14.64742188 47.32742188 -14.43359375 46.43359375 C-14.12196547 45.12249805 -13.81081815 43.81128799 -13.5 42.5 C-13.32944092 41.78070313 -13.15888184 41.06140625 -12.9831543 40.3203125 C-11.70988723 34.91042959 -10.4824939 29.49096047 -9.2734375 24.06640625 C-8.95776625 22.65372664 -8.6420924 21.2410476 -8.32641602 19.82836914 C-7.84937374 17.6926979 -7.37373246 15.55675744 -6.90206909 13.41989136 C-6.45482238 11.39378828 -6.00318049 9.3687078 -5.55078125 7.34375 C-5.28821533 6.15845703 -5.02564941 4.97316406 -4.75512695 3.75195312 C-3.80888838 0.07773242 -3.80888838 0.07773242 0 0 Z " fill="#4871A5" transform="translate(287.0625,409.9375)"/>
<path d="M0 0 C0.33 0 0.66 0 1 0 C1 4.62 1 9.24 1 14 C24.1 14 47.2 14 71 14 C71 11.03 71 8.06 71 5 C73.64 5 76.28 5 79 5 C79.495 10.94 79.495 10.94 80 17 C77.03 17 74.06 17 71 17 C71 16.34 71 15.68 71 15 C47.9 15 24.8 15 1 15 C1 37.44 1 59.88 1 83 C0.67 83 0.34 83 0 83 C-0.78846401 78.1361666 -1.12631456 73.47699005 -1.12939453 68.55175781 C-1.13114685 67.84354385 -1.13289917 67.1353299 -1.13470459 66.40565491 C-1.13907039 64.08811929 -1.13620511 61.77066126 -1.1328125 59.453125 C-1.13348675 57.83363836 -1.1344578 56.21415182 -1.13571167 54.59466553 C-1.13718123 51.21235178 -1.13505684 47.83006456 -1.13037109 44.44775391 C-1.12465593 40.11106905 -1.12796876 35.77444585 -1.13394356 31.43776321 C-1.13755362 28.09895359 -1.13640884 24.76015864 -1.13381577 21.42134857 C-1.13314868 19.82174421 -1.13396731 18.22213851 -1.13629532 16.62253571 C-1.13883111 14.39187574 -1.13496896 12.16131651 -1.12939453 9.93066406 C-1.12859894 8.66160217 -1.12780334 7.39254028 -1.12698364 6.08502197 C-1 3 -1 3 0 0 Z " fill="#C7AA55" transform="translate(426,446)"/>
<path d="M0 0 C2.96922861 1.79349379 5.42452071 3.84904142 7 7 C7.08308638 8.37548156 7.10736016 9.75485796 7.09765625 11.1328125 C7.09443359 11.93847656 7.09121094 12.74414062 7.08789062 13.57421875 C7.07951172 14.41597656 7.07113281 15.25773437 7.0625 16.125 C7.05798828 16.97449219 7.05347656 17.82398438 7.04882812 18.69921875 C7.03702874 20.79950909 7.01909306 22.8997633 7 25 C4.69 25 2.38 25 0 25 C-0.33 19.06 -0.66 13.12 -1 7 C-3.97 6.505 -3.97 6.505 -7 6 C-10.02093215 9.02093215 -9.46676834 12.56372072 -9.625 16.625 C-9.66367188 17.42679687 -9.70234375 18.22859375 -9.7421875 19.0546875 C-9.83653931 21.03607556 -9.91936215 23.01800645 -10 25 C-11.98 25 -13.96 25 -16 25 C-16 19.39 -16 13.78 -16 8 C-15.67 8 -15.34 8 -15 8 C-15 12.95 -15 17.9 -15 23 C-14.01 23 -13.02 23 -12 23 C-12.01160156 21.95199219 -12.02320313 20.90398437 -12.03515625 19.82421875 C-12.04453655 18.44531428 -12.0536365 17.06640789 -12.0625 15.6875 C-12.07087891 14.99720703 -12.07925781 14.30691406 -12.08789062 13.59570312 C-12.10307906 10.4516975 -12.00193327 8.00579981 -11 5 C-11.66 5 -12.32 5 -13 5 C-10.41751642 -0.16496715 -5.23895017 -0.73529125 0 0 Z " fill="#5781B3" transform="translate(173,426)"/>
<path d="M0 0 C9.53928571 0 9.53928571 0 12.9296875 3.2421875 C15.1724155 6.92549991 14.75393305 10.8937575 14 15 C12.625 18.125 12.625 18.125 10 20 C6.7 20 3.4 20 0 20 C0 13.4 0 6.8 0 0 Z " fill="#F3F9FC" transform="translate(73,425)"/>
<path d="M0 0 C3.05074215 -0.28780586 5.96183742 -0.45787911 9 0 C11.0625 2.5 11.0625 2.5 12 5 C13.32 4.67 14.64 4.34 16 4 C16.33 2.68 16.66 1.36 17 0 C17.32644414 4.16216275 17.40650982 6.36313462 15.125 9.9375 C13 12 13 12 11 12 C12.98 16.29 14.96 20.58 17 25 C14.69 25 12.38 25 10 25 C8.00390625 22.8828125 8.00390625 22.8828125 6.5625 20.125 C6.06878906 19.22007812 5.57507813 18.31515625 5.06640625 17.3828125 C4 15 4 15 4 13 C2.68 13 1.36 13 0 13 C0 8.66666667 0 4.33333333 0 0 Z " fill="#4F7EB4" transform="translate(797,247)"/>
<path d="M0 0 C0.99 0 1.98 0 3 0 C3.01030746 0.86586227 3.02061493 1.73172455 3.03123474 2.62382507 C3.12927389 10.78979329 3.23179743 18.9556903 3.33933926 27.12153912 C3.39446782 31.3195254 3.44787146 35.51751877 3.49731445 39.71557617 C3.54510682 43.76806863 3.59745452 47.82047914 3.65294075 51.87287331 C3.67329706 53.41777311 3.69202099 54.96269532 3.70907402 56.50763512 C3.7332675 58.67403622 3.76330071 60.84028446 3.79467773 63.0065918 C3.81022202 64.23903122 3.8257663 65.47147064 3.84178162 66.74125671 C3.98160817 69.62119279 4.3858951 72.19322665 5 75 C5.07970902 77.20322602 5.10772312 79.40863682 5.09765625 81.61328125 C5.09443359 82.86044922 5.09121094 84.10761719 5.08789062 85.39257812 C5.07951172 86.68615234 5.07113281 87.97972656 5.0625 89.3125 C5.05798828 90.62541016 5.05347656 91.93832031 5.04882812 93.29101562 C5.03705949 96.5273901 5.0206176 99.76367178 5 103 C4.67 103 4.34 103 4 103 C0.07678194 68.65097382 -0.2772675 34.53174965 0 0 Z " fill="#FDF3C4" transform="translate(426,466)"/>
<path d="M0 0 C2.31 0 4.62 0 7 0 C7 1.65 7 3.3 7 5 C8.65 5 10.3 5 12 5 C12 6.65 12 8.3 12 10 C10.02 10 8.04 10 6 10 C6 14.62 6 19.24 6 24 C7.98 24.33 9.96 24.66 12 25 C12 26.65 12 28.3 12 30 C7.98645732 30.39348458 5.62598986 30.34629226 2.0625 28.375 C-1.25713604 22.9428683 -0.37789892 17.20594005 0 11 C-0.66 11 -1.32 11 -2 11 C-2 9.02 -2 7.04 -2 5 C-1.34 5 -0.68 5 0 5 C0 3.35 0 1.7 0 0 Z " fill="#4171AC" transform="translate(213,421)"/>
<path d="M0 0 C2.31 0 4.62 0 7 0 C7.79211929 1.89564426 8.58367576 3.79152371 9.375 5.6875 C9.81585938 6.74324219 10.25671875 7.79898438 10.7109375 8.88671875 C11.34902344 10.42779297 11.34902344 10.42779297 12 12 C12.39058594 12.91007812 12.78117187 13.82015625 13.18359375 14.7578125 C14.12830208 17.3523703 13.96547011 18.45466971 13 21 C12.67 21.66 12.34 22.32 12 23 C11.01 22.67 10.02 22.34 9 22 C9 20.68 9 19.36 9 18 C8.67 18.66 8.34 19.32 8 20 C5.03 20 2.06 20 -1 20 C-0.54857225 18.22739369 -0.08859477 16.4569632 0.375 14.6875 C0.63023437 13.70136719 0.88546875 12.71523437 1.1484375 11.69921875 C2 9 2 9 4 6 C2.02 6 0.04 6 -2 6 C-1.34 4.02 -0.68 2.04 0 0 Z " fill="#4877B3" transform="translate(387,105)"/>
<path d="M0 0 C4.33333333 0 8.66666667 0 13 0 C13.3125 2.3125 13.3125 2.3125 13 5 C12.18402344 5.39316406 11.36804688 5.78632813 10.52734375 6.19140625 C7.60836598 7.84051236 7.60836598 7.84051236 7.328125 11.5390625 C7.27780463 12.90036088 7.25256057 14.2627743 7.25 15.625 C7.07357143 22.92642857 7.07357143 22.92642857 6 24 C4.02 24 2.04 24 0 24 C0 16.08 0 8.16 0 0 Z " fill="#4C79AF" transform="translate(256,427)"/>
<path d="M0 0 C2.64 0 5.28 0 8 0 C8 7.92 8 15.84 8 24 C5.36 24 2.72 24 0 24 C0 16.08 0 8.16 0 0 Z " fill="#F6C931" transform="translate(497,273)"/>
<path d="M0 0 C2.64 0 5.28 0 8 0 C8 7.92 8 15.84 8 24 C5.36 24 2.72 24 0 24 C0 16.08 0 8.16 0 0 Z " fill="#F6C936" transform="translate(497,228)"/>
<path d="M0 0 C2.64 0 5.28 0 8 0 C8 7.59 8 15.18 8 23 C5.36 23 2.72 23 0 23 C0 15.41 0 7.82 0 0 Z " fill="#F6C730" transform="translate(497,407)"/>
<path d="M0 0 C2.64 0 5.28 0 8 0 C8 7.59 8 15.18 8 23 C5.36 23 2.72 23 0 23 C0 15.41 0 7.82 0 0 Z " fill="#F0C84A" transform="translate(497,362)"/>
<path d="M0 0 C2.64 0 5.28 0 8 0 C8 7.59 8 15.18 8 23 C5.36 23 2.72 23 0 23 C0 15.41 0 7.82 0 0 Z " fill="#F6C831" transform="translate(497,318)"/>
<path d="M0 0 C5.61 0 11.22 0 17 0 C16.67 1.65 16.34 3.3 16 5 C12.04 4.67 8.08 4.34 4 4 C4.165 5.52625 4.33 7.0525 4.5 8.625 C5.12896135 15.4195543 5.08957366 22.18244893 5 29 C3.35 29 1.7 29 0 29 C0 19.43 0 9.86 0 0 Z " fill="#4275B1" transform="translate(732,550)"/>
<path d="M0 0 C2.75 1.3125 2.75 1.3125 5 3 C5.8971875 3.5878125 5.8971875 3.5878125 6.8125 4.1875 C8 6 8 6 8 14 C2.39 14 -3.22 14 -9 14 C-9 13.01 -9 12.02 -9 11 C-5.04 11 -1.08 11 3 11 C2.01 9.35 1.02 7.7 0 6 C-3 5.33333333 -3 5.33333333 -6 6 C-7.87890434 7.37506099 -7.87890434 7.37506099 -9 9 C-9 8.34 -9 7.68 -9 7 C-10.98 7.99 -10.98 7.99 -13 9 C-13.33 8.01 -13.66 7.02 -14 6 C-9.0824468 0.95303751 -7.16990717 -0.4860954 0 0 Z " fill="#4D77A9" transform="translate(199,426)"/>
<path d="M0 0 C14.19 0 28.38 0 43 0 C43 1.32 43 2.64 43 4 C28.81 4 14.62 4 0 4 C0 2.68 0 1.36 0 0 Z " fill="#050404" transform="translate(374,461)"/>
<path d="M0 0 C2.4375 0.8125 2.4375 0.8125 4.4375 3.8125 C2.4575 3.1525 0.4775 2.4925 -1.5625 1.8125 C-7.73706865 11.14240935 -13.7127746 20.57404865 -19.4375 30.1875 C-20.23933716 31.52192139 -20.23933716 31.52192139 -21.05737305 32.88330078 C-24.19477384 38.19365485 -26.91302088 43.56516701 -29.40576172 49.20605469 C-31.06287305 52.9399763 -32.86232044 56.5960338 -34.6875 60.25 C-35.02136719 60.92998047 -35.35523438 61.60996094 -35.69921875 62.31054688 C-37.39977584 65.72166433 -39.13521098 68.86507762 -41.5625 71.8125 C-41.5625 70.1625 -41.5625 68.5125 -41.5625 66.8125 C-40.9025 66.8125 -40.2425 66.8125 -39.5625 66.8125 C-39.418125 66.07 -39.27375 65.3275 -39.125 64.5625 C-38.66062508 62.29222261 -38.14386431 60.05490521 -37.5625 57.8125 C-36.9025 57.8125 -36.2425 57.8125 -35.5625 57.8125 C-35.5625 56.4925 -35.5625 55.1725 -35.5625 53.8125 C-34.9025 53.8125 -34.2425 53.8125 -33.5625 53.8125 C-33.5625 52.4925 -33.5625 51.1725 -33.5625 49.8125 C-32.5725 49.3175 -32.5725 49.3175 -31.5625 48.8125 C-30.43147474 46.47211814 -30.43147474 46.47211814 -29.4375 43.75 C-29.08429688 42.83089844 -28.73109375 41.91179687 -28.3671875 40.96484375 C-27.96886719 39.89943359 -27.96886719 39.89943359 -27.5625 38.8125 C-26.9025 38.8125 -26.2425 38.8125 -25.5625 38.8125 C-25.459375 38.11125 -25.35625 37.41 -25.25 36.6875 C-24.46890997 33.42112353 -23.14191257 30.7653148 -21.5625 27.8125 C-20.9025 27.8125 -20.2425 27.8125 -19.5625 27.8125 C-19.5625 26.8225 -19.5625 25.8325 -19.5625 24.8125 C-18.9025 24.8125 -18.2425 24.8125 -17.5625 24.8125 C-17.5625 23.4925 -17.5625 22.1725 -17.5625 20.8125 C-16.9025 20.8125 -16.2425 20.8125 -15.5625 20.8125 C-15.459375 20.27625 -15.35625 19.74 -15.25 19.1875 C-14.38157303 16.18747956 -13.00629704 13.5745465 -11.5625 10.8125 C-10.9025 10.8125 -10.2425 10.8125 -9.5625 10.8125 C-9.5625 9.4925 -9.5625 8.1725 -9.5625 6.8125 C-8.2425 6.4825 -6.9225 6.1525 -5.5625 5.8125 C-5.5625 4.4925 -5.5625 3.1725 -5.5625 1.8125 C-2.5625 -0.1875 -2.5625 -0.1875 0 0 Z " fill="#FEFAD3" transform="translate(514.5625,137.1875)"/>
<path d="M0 0 C0.66 0 1.32 0 2 0 C2 7.59 2 15.18 2 23 C2.33 22.67 2.66 22.34 3 22 C5.51708673 21.79700913 8.0317619 21.68087304 10.5546875 21.57421875 C13.10336556 21.19491414 13.10336556 21.19491414 14.80078125 19.26953125 C16.19606857 16.62893864 16.37138852 14.97160551 16.3125 12 C16.30669922 10.7315625 16.30669922 10.7315625 16.30078125 9.4375 C15.98576274 6.88462271 15.28396996 5.20986065 14 3 C15.9375 3.8125 15.9375 3.8125 18 5 C19.18681726 8.56045177 19.09689832 11.43808337 19.0625 15.1875 C19.05347656 16.45980469 19.04445313 17.73210937 19.03515625 19.04296875 C19.02355469 20.01878906 19.01195313 20.99460937 19 22 C18.34 22 17.68 22 17 22 C17 22.66 17 23.32 17 24 C16.34 24 15.68 24 15 24 C14.67 24.99 14.34 25.98 14 27 C10.93466836 28.53266582 7.73245728 28.10276471 4.375 28.0625 C3.66859375 28.05798828 2.9621875 28.05347656 2.234375 28.04882812 C0.48954725 28.03703875 -1.255237 28.01910324 -3 28 C-2.34 27.34 -1.68 26.68 -1 26 C-0.73826119 23.39430657 -0.73826119 23.39430657 -0.83984375 20.37109375 C-0.8562793 18.69563477 -0.8562793 18.69563477 -0.87304688 16.98632812 C-0.89431641 15.81521484 -0.91558594 14.64410156 -0.9375 13.4375 C-0.97176826 11.12375787 -1.00194613 8.80995025 -1.02734375 6.49609375 C-1.04531006 5.46669678 -1.06327637 4.4372998 -1.08178711 3.37670898 C-1 1 -1 1 0 0 Z " fill="#4778B6" transform="translate(70,423)"/>
<path d="M0 0 C0.33 0 0.66 0 1 0 C1.01030746 0.79656006 1.02061493 1.59312012 1.03123474 2.41381836 C1.12949392 9.94606067 1.23204682 17.47822684 1.33933926 25.01034546 C1.39434089 28.88203268 1.44772247 32.75372769 1.49731445 36.62548828 C1.54529626 40.36677099 1.59764755 44.10797007 1.65294075 47.84915161 C1.67321225 49.27155455 1.69194879 50.69398027 1.70907402 52.11642456 C1.79483513 59.16078363 1.98174727 66.02762689 3 73 C3.06809887 74.42582924 3.10955129 75.85384502 3.09765625 77.28125 C3.09282227 78.32539062 3.09282227 78.32539062 3.08789062 79.390625 C3.07951172 80.08671875 3.07113281 80.7828125 3.0625 81.5 C3.05573242 82.59054687 3.05573242 82.59054687 3.04882812 83.703125 C3.03721193 85.46878681 3.01928441 87.2344053 3 89 C2.67 89 2.34 89 2 89 C-0.34515813 81.48786745 -0.45455377 74.06952959 -0.625 66.25 C-0.66257142 64.78572524 -0.70016976 63.32145117 -0.73779297 61.85717773 C-1.04558588 48.92755526 -1.10457783 35.99530088 -1.125 23.0625 C-1.12767883 22.08244995 -1.13035767 21.1023999 -1.13311768 20.09265137 C-1.13891878 17.30261441 -1.1372773 14.51269362 -1.1328125 11.72265625 C-1.13478638 10.88354202 -1.13676025 10.0444278 -1.13879395 9.17988586 C-1.12548141 5.86599277 -1.05530268 3.16590804 0 0 Z " fill="#FEF5CB" transform="translate(417,466)"/>
<path d="M0 0 C2.8100346 1.79363911 4.50940468 3.01880935 6 6 C6.77725784 12.47714865 4.66947745 15.9544685 1 21 C0.67 20.01 0.34 19.02 0 18 C0.474375 17.2575 0.94875 16.515 1.4375 15.75 C3.44027273 12.22511999 3.5177927 9.99440082 3 6 C1.13875077 4.01760473 1.13875077 4.01760473 -1 3 C-0.505 3.53625 -0.01 4.0725 0.5 4.625 C2.40245078 7.63721374 2.38080215 9.49662019 2 13 C1.34 13.66 0.68 14.32 0 15 C-0.33 12.03 -0.66 9.06 -1 6 C-3.37305578 5.58219121 -3.37305578 5.58219121 -6 6 C-6.474375 6.825 -6.94875 7.65 -7.4375 8.5 C-7.953125 9.325 -8.46875 10.15 -9 11 C-12.1875 11.3125 -12.1875 11.3125 -15 11 C-14.80839429 6.88047733 -14.22298348 5.25017659 -11.4375 2.125 C-7.57518144 -0.74388566 -4.70314924 -0.67187846 0 0 Z " fill="#4671A1" transform="translate(309,418)"/>
<path d="M0 0 C1.9375 1.0625 1.9375 1.0625 3 3 C3.63636364 8.93939394 3.63636364 8.93939394 1.875 11.875 C-0.83159547 13.49895728 -2.84374437 13.93558662 -6 14 C-8.375 12.5 -8.375 12.5 -10 10 C-10.42519574 6.53769185 -10.63902633 4.1652833 -8.9375 1.0625 C-5.88023824 -0.6140629 -3.4093712 -0.36528977 0 0 Z " fill="#ECF4F9" transform="translate(125,432)"/>
<path d="M0 0 C1.98 0 3.96 0 6 0 C6 8.25 6 16.5 6 25 C4.02 25 2.04 25 0 25 C0 16.75 0 8.5 0 0 Z " fill="#5078A5" transform="translate(98,426)"/>
<path d="M0 0 C4.455 1.98 4.455 1.98 9 4 C8.67 9.28 8.34 14.56 8 20 C5.36 20 2.72 20 0 20 C0 13.4 0 6.8 0 0 Z " fill="#E9C64B" transform="translate(497,187)"/>
<path d="M0 0 C1.61841797 0.20882813 1.61841797 0.20882813 3.26953125 0.421875 C4.89955078 0.61523438 4.89955078 0.61523438 6.5625 0.8125 C7.80966797 0.99039062 7.80966797 0.99039062 9.08203125 1.171875 C9.08203125 1.501875 9.08203125 1.831875 9.08203125 2.171875 C6.44203125 2.171875 3.80203125 2.171875 1.08203125 2.171875 C1.00089019 3.94195214 0.9427762 5.71309598 0.89453125 7.484375 C0.85972656 8.47050781 0.82492188 9.45664062 0.7890625 10.47265625 C0.85339289 13.17418778 0.85339289 13.17418778 2.39453125 14.953125 C4.77155909 16.66986733 7.28492402 17.3638218 10.08203125 18.171875 C10.08203125 18.831875 10.08203125 19.491875 10.08203125 20.171875 C5.10845721 20.78088407 1.18548782 20.83597446 -2.98046875 17.796875 C-5.81181913 15.03778647 -6.40947476 12.97043758 -6.54296875 9.046875 C-6.44500745 6.18818603 -6.04024598 4.41808745 -4.765625 1.8515625 C-2.91796875 0.171875 -2.91796875 0.171875 0 0 Z " fill="#3E70AF" transform="translate(114.91796875,428.828125)"/>
<path d="M0 0 C2.32261577 1.46691522 4.01448166 3.06290894 6 5 C5.34 6.32 4.68 7.64 4 9 C3.34 8.01 2.68 7.02 2 6 C0.30136062 4.48382093 0.30136062 4.48382093 -2 4 C-5.79207688 5.52749374 -5.79207688 5.52749374 -9 8 C-9.23701239 10.85877909 -9.42219182 13.69883297 -9.5625 16.5625 C-9.60568359 17.36880859 -9.64886719 18.17511719 -9.69335938 19.00585938 C-9.79975262 21.00368805 -9.90040888 23.0018207 -10 25 C-11.98 25 -13.96 25 -16 25 C-16 19.39 -16 13.78 -16 8 C-15.67 8 -15.34 8 -15 8 C-15 12.95 -15 17.9 -15 23 C-14.01 23 -13.02 23 -12 23 C-12.01160156 21.95199219 -12.02320313 20.90398437 -12.03515625 19.82421875 C-12.04453655 18.44531428 -12.0536365 17.06640789 -12.0625 15.6875 C-12.07087891 14.99720703 -12.07925781 14.30691406 -12.08789062 13.59570312 C-12.10307906 10.4516975 -12.00193327 8.00579981 -11 5 C-11.66 5 -12.32 5 -13 5 C-10.41751642 -0.16496715 -5.23895017 -0.73529125 0 0 Z " fill="#5179A6" transform="translate(173,426)"/>
<path d="M0 0 C0.95892499 2.58909747 1.0552238 3.81592068 0.25 6.5 C-1 9 -1 9 -2.54614258 10.84472656 C-4.27796581 13.4120709 -4.41808003 14.91302496 -4.51171875 17.984375 C-4.54716797 18.91894531 -4.58261719 19.85351562 -4.61914062 20.81640625 C-4.64169922 21.78449219 -4.66425781 22.75257813 -4.6875 23.75 C-4.72166016 24.73355469 -4.75582031 25.71710938 -4.79101562 26.73046875 C-4.87335273 29.15353199 -4.94254838 31.57623998 -5 34 C-2.36 34 0.28 34 3 34 C3 29.05 3 24.1 3 19 C3.99 19.33 4.98 19.66 6 20 C5.67 20.33 5.34 20.66 5 21 C4.79031249 23.32986123 4.63184611 25.66444036 4.5 28 C4.11111111 34.88888889 4.11111111 34.88888889 3 36 C1.50261876 36.0979057 0.00057108 36.12974864 -1.5 36.125 C-2.3146875 36.12757813 -3.129375 36.13015625 -3.96875 36.1328125 C-6 36 -6 36 -7 35 C-7.23653523 32.47403741 -7.42173692 29.96892793 -7.5625 27.4375 C-7.62727539 26.37112305 -7.62727539 26.37112305 -7.69335938 25.28320312 C-7.79971777 23.52238088 -7.90038846 21.7612168 -8 20 C-8.33 20.66 -8.66 21.32 -9 22 C-9.66 22 -10.32 22 -11 22 C-9.68938409 17.76570244 -8.05643741 13.92592596 -6 10 C-5.34 10 -4.68 10 -4 10 C-3.8453125 8.9171875 -3.8453125 8.9171875 -3.6875 7.8125 C-2.94013068 4.75508007 -1.71954811 2.61670365 0 0 Z " fill="#FDF9D0" transform="translate(502,173)"/>
<path d="M0 0 C0.33 0 0.66 0 1 0 C0.88588196 2.75084547 0.75914051 5.50011947 0.625 8.25 C0.57859375 9.41595703 0.57859375 9.41595703 0.53125 10.60546875 C0.47324219 11.73662109 0.47324219 11.73662109 0.4140625 12.890625 C0.3826416 13.58188477 0.3512207 14.27314453 0.31884766 14.98535156 C-0.04851719 17.30655729 -0.94645519 18.905645 -2 21 C-2.46169249 22.82540806 -2.8624166 24.6667602 -3.21875 26.515625 C-3.42790039 27.59424805 -3.63705078 28.67287109 -3.85253906 29.78417969 C-4.06620117 30.92790039 -4.27986328 32.07162109 -4.5 33.25 C-4.72139648 34.42208008 -4.94279297 35.59416016 -5.17089844 36.80175781 C-7.64998296 50.16229208 -9.19450869 63.43383053 -10 77 C-10.66 77 -11.32 77 -12 77 C-12.24918531 69.59827324 -11.30747269 62.45187221 -10.3125 55.125 C-10.22485382 54.47226105 -10.13720764 53.81952209 -10.04690552 53.14700317 C-7.63272905 35.27601367 -4.35824649 17.50385175 0 0 Z " fill="#EFC94E" transform="translate(435,324)"/>
<path d="M0 0 C0.33 0 0.66 0 1 0 C1 2.31 1 4.62 1 7 C1.66 7 2.32 7 3 7 C3 8.32 3 9.64 3 11 C3.66 11 4.32 11 5 11 C5.33 10.01 5.66 9.02 6 8 C6.350625 8.495 6.70125 8.99 7.0625 9.5 C9.96703532 11.74867251 12.44213387 11.26354564 16 11 C16.33 10.67 16.66 10.34 17 10 C18.99958364 9.95919217 21.00045254 9.95745644 23 10 C22.0195412 12.58484592 21.06077857 13.94843031 18.9375 15.75 C14.88110903 17.47612382 11.34541251 17.709777 7 17 C3.90901364 15.22432699 2.47049844 13.80656876 0.6875 10.75 C-0.23391867 7.06432532 -0.12867983 3.79605497 0 0 Z " fill="#4B72A3" transform="translate(228,434)"/>
<path d="M0 0 C0.33 1.32 0.66 2.64 1 4 C1.66 4 2.32 4 3 4 C3 4.99 3 5.98 3 7 C10.92 6.505 10.92 6.505 19 6 C19.33 5.01 19.66 4.02 20 3 C20.66 3 21.32 3 22 3 C23.60355101 6.50776784 24.22036864 9.14354879 24 13 C22.02 13 20.04 13 18 13 C17.67 11.35 17.34 9.7 17 8 C12.71 8 8.42 8 4 8 C3.67 9.65 3.34 11.3 3 13 C0.69 13 -1.62 13 -4 13 C-2.68 8.71 -1.36 4.42 0 0 Z " fill="#5984B9" transform="translate(380,122)"/>
<path d="M0 0 C0.66 1.32 1.32 2.64 2 4 C2.66 4 3.32 4 4 4 C4.33 3.34 4.66 2.68 5 2 C5.34675781 2.50144531 5.69351563 3.00289063 6.05078125 3.51953125 C9.05714796 5.802924 11.51726182 5.05789101 15.1875 4.6875 C16.45980469 4.56761719 17.73210937 4.44773437 19.04296875 4.32421875 C20.01878906 4.21722656 20.99460938 4.11023438 22 4 C19.2734375 8.8359375 19.2734375 8.8359375 16.8125 10.3125 C11.74779165 11.55053982 7.75341337 11.93266669 3.0625 9.4375 C0.43643125 6.33396421 0.23071677 3.9990906 0 0 Z " fill="#4772A6" transform="translate(185,440)"/>
<path d="M0 0 C0.8146875 0.00257813 1.629375 0.00515625 2.46875 0.0078125 C3.2834375 0.00523437 4.098125 0.00265625 4.9375 0 C6.96875 0.1328125 6.96875 0.1328125 7.96875 1.1328125 C8.06846786 3.04739532 8.09955589 4.96563567 8.1015625 6.8828125 C8.10349609 8.63078125 8.10349609 8.63078125 8.10546875 10.4140625 C8.10160156 11.64125 8.09773438 12.8684375 8.09375 14.1328125 C8.09761719 15.36 8.10148437 16.5871875 8.10546875 17.8515625 C8.10417969 19.016875 8.10289062 20.1821875 8.1015625 21.3828125 C8.10043457 22.46046875 8.09930664 23.538125 8.09814453 24.6484375 C7.96875 27.1328125 7.96875 27.1328125 6.96875 28.1328125 C1.1276904 28.50367343 1.1276904 28.50367343 -1.03125 28.1328125 C-3.28584011 24.75092733 -3.2782598 23.58382421 -3.26171875 19.625 C-3.25978516 18.55636719 -3.25785156 17.48773438 -3.25585938 16.38671875 C-3.23749023 14.71416016 -3.23749023 14.71416016 -3.21875 13.0078125 C-3.21810547 11.88503906 -3.21746094 10.76226562 -3.21679688 9.60546875 C-3.1656564 0.20698523 -3.1656564 0.20698523 0 0 Z M-1.03125 2.1328125 C-1.03125 10.0528125 -1.03125 17.9728125 -1.03125 26.1328125 C1.60875 26.1328125 4.24875 26.1328125 6.96875 26.1328125 C6.96875 18.2128125 6.96875 10.2928125 6.96875 2.1328125 C4.32875 2.1328125 1.68875 2.1328125 -1.03125 2.1328125 Z " fill="#FFFACF" transform="translate(498.03125,270.8671875)"/>
<path d="M0 0 C5.22174778 -0.31330487 8.57691041 0.11984864 13 3 C14.375 5.1875 14.375 5.1875 15 7 C14.360625 7.103125 13.72125 7.20625 13.0625 7.3125 C12.381875 7.539375 11.70125 7.76625 11 8 C10.67 8.99 10.34 9.98 10 11 C6.04 11 2.08 11 -2 11 C0 6 0 6 1.7265625 4.85546875 C4.36328125 3.92773438 4.36328125 3.92773438 7 3 C4.69 2.34 2.38 1.68 0 1 C0 0.67 0 0.34 0 0 Z " fill="#5E85B1" transform="translate(236,426)"/>
<path d="M0 0 C1.65 0 3.3 0 5 0 C5 7.59 5 15.18 5 23 C3.35 23 1.7 23 0 23 C0.01160156 21.80761719 0.02320313 20.61523438 0.03515625 19.38671875 C0.04453592 17.82031406 0.05363593 16.25390769 0.0625 14.6875 C0.07087891 13.90181641 0.07925781 13.11613281 0.08789062 12.30664062 C0.09111328 11.54931641 0.09433594 10.79199219 0.09765625 10.01171875 C0.10289307 9.31522217 0.10812988 8.61872559 0.11352539 7.90112305 C0.06895991 5.77502032 0.06895991 5.77502032 -1 3 C-0.67 2.01 -0.34 1.02 0 0 Z " fill="#3A70B2" transform="translate(128,427)"/>
<path d="M0 0 C2.64 0 5.28 0 8 0 C8.33 3.96 8.66 7.92 9 12 C6.03 12 3.06 12 0 12 C-1.03159626 8.90521121 -0.97482862 7.47368607 -0.5625 4.3125 C-0.46066406 3.50425781 -0.35882813 2.69601562 -0.25390625 1.86328125 C-0.17011719 1.24839844 -0.08632813 0.63351562 0 0 Z " fill="#D8B341" transform="translate(497,451)"/>
<path d="M0 0 C1.4540625 0.0309375 1.4540625 0.0309375 2.9375 0.0625 C1.83059248 6.46843286 0.59804831 12.77613856 -1.0625 19.0625 C-2.0525 17.7425 -3.0425 16.4225 -4.0625 15.0625 C-4.3925 15.7225 -4.7225 16.3825 -5.0625 17.0625 C-5.7225 17.0625 -6.3825 17.0625 -7.0625 17.0625 C-6.58805245 14.41573911 -6.10818672 11.77016636 -5.625 9.125 C-5.49029297 8.37025391 -5.35558594 7.61550781 -5.21679688 6.83789062 C-3.97451931 0.08111264 -3.97451931 0.08111264 0 0 Z " fill="#4A75A8" transform="translate(287.0625,409.9375)"/>
<path d="M0 0 C0.33 0 0.66 0 1 0 C1.23427082 8.18646368 1.08300896 16.03287083 -1 24 C-1.33 24.33 -1.66 24.66 -2 25 C-2.09630264 26.70562672 -2.18541271 28.41192922 -2.24047852 30.11938477 C-2.5985002 41.02144838 -4.6376587 51.37495795 -7 62 C-7.33 62 -7.66 62 -8 62 C-8.27721547 54.81087892 -7.34794261 47.81340162 -6.40087891 40.70117188 C-6.12666177 38.63750592 -5.86155658 36.5728203 -5.59765625 34.5078125 C-4.75338025 27.99939891 -3.80138336 21.54985414 -2.44189453 15.12744141 C-1.80475495 12.06001912 -1.33641504 8.97307242 -0.875 5.875 C-0.70742188 4.75867188 -0.53984375 3.64234375 -0.3671875 2.4921875 C-0.24601562 1.66976563 -0.12484375 0.84734375 0 0 Z " fill="#FEF5C5" transform="translate(438,353)"/>
<path d="M0 0 C0.33 0 0.66 0 1 0 C1.08204828 1.39482079 1.13966204 2.79108728 1.1875 4.1875 C1.22230469 4.96480469 1.25710938 5.74210937 1.29296875 6.54296875 C1 9 1 9 -0.41796875 11.31640625 C-2.39725843 14.67386801 -2.91324701 17.96059069 -3.5 21.75 C-4.39789177 27.05801882 -5.51196269 31.9879145 -7.3828125 37.05078125 C-8.03847173 39.12150249 -8.29741653 41.02796021 -8.5 43.1875 C-9.00963878 47.07349566 -10.06042155 49.62682009 -12 53 C-13.4808602 49.06738449 -12.54158791 46.06416636 -11.5625 42.0625 C-11.39000732 41.35464355 -11.21751465 40.64678711 -11.03979492 39.91748047 C-7.72593924 26.59310527 -4.34211561 13.02634683 0 0 Z " fill="#FEF7C8" transform="translate(456,280)"/>
<path d="M0 0 C0.33 0 0.66 0 1 0 C1.13367169 4.9109646 0.68047491 9.26151992 -0.33203125 14.0625 C-2.38115028 24.2995004 -3.50503245 34.63408608 -4.6875 45 C-4.91420222 46.95058033 -5.14141273 48.90110165 -5.36914062 50.8515625 C-5.91860406 55.56705077 -6.46124735 60.28327651 -7 65 C-7.33 65 -7.66 65 -8 65 C-8.49961785 56.22893114 -7.40661149 47.90493463 -6.1418457 39.24462891 C-5.18874959 32.65044821 -4.54538692 26.14151115 -4.2109375 19.484375 C-4 17 -4 17 -3 15 C-2.63647194 13.02615625 -2.30771377 11.04581138 -2 9.0625 C-1.50749444 5.89584319 -1.01437053 3.04311158 0 0 Z " fill="#FEF6C4" transform="translate(429,346)"/>
<path d="M0 0 C1.91015625 0.1328125 1.91015625 0.1328125 3.91015625 1.1328125 C3.91015625 9.0528125 3.91015625 16.9728125 3.91015625 25.1328125 C3.58015625 25.1328125 3.25015625 25.1328125 2.91015625 25.1328125 C2.91015625 17.5428125 2.91015625 9.9528125 2.91015625 2.1328125 C0.27015625 2.1328125 -2.36984375 2.1328125 -5.08984375 2.1328125 C-5.08984375 9.7228125 -5.08984375 17.3128125 -5.08984375 25.1328125 C-5.74984375 25.1328125 -6.40984375 25.1328125 -7.08984375 25.1328125 C-7.11871359 21.15366091 -7.13659781 17.17453597 -7.15234375 13.1953125 C-7.16072266 12.05900391 -7.16910156 10.92269531 -7.17773438 9.75195312 C-7.18095703 8.67236328 -7.18417969 7.59277344 -7.1875 6.48046875 C-7.19273682 5.48023682 -7.19797363 4.48000488 -7.20336914 3.44946289 C-6.97395745 -1.23201569 -4.01080897 0.01455829 0 0 Z " fill="#FEF9CD" transform="translate(502.08984375,404.8671875)"/>
<path d="M0 0 C0.66 0 1.32 0 2 0 C2 7.59 2 15.18 2 23 C4.64 23 7.28 23 10 23 C10 15.74 10 8.48 10 1 C10.33 1 10.66 1 11 1 C11 8.59 11 16.18 11 24 C7.74696956 25.62651522 4.60774398 25.11453156 1 25 C0 24 0 24 -0.11352539 21.68334961 C-0.10828857 20.68311768 -0.10305176 19.68288574 -0.09765625 18.65234375 C-0.09443359 17.57275391 -0.09121094 16.49316406 -0.08789062 15.38085938 C-0.07951172 14.24455078 -0.07113281 13.10824219 -0.0625 11.9375 C-0.05798828 10.79732422 -0.05347656 9.65714844 -0.04882812 8.48242188 C-0.03699747 5.65489649 -0.0205141 2.8274736 0 0 Z " fill="#FEF9CB" transform="translate(495,362)"/>
<path d="M0 0 C6.0546875 -0.1953125 6.0546875 -0.1953125 8 0 C10 2 10 2 10.1875 5.0625 C10 8 10 8 9 9 C5.99668982 9.14193337 3.00782866 9.04236378 0 9 C0 6.03 0 3.06 0 0 Z " fill="#E7F2F9" transform="translate(737,554)"/>
<path d="M0 0 C6.93359375 -0.09765625 6.93359375 -0.09765625 9 0 C10 1 10 1 10.1875 3.9375 C10 7 10 7 8 9 C5.31160615 9.26991906 2.70858064 9.08737357 0 9 C0 6.03 0 3.06 0 0 Z " fill="#E9F4FB" transform="translate(797,247)"/>
<path d="M0 0 C3.875 1.75 3.875 1.75 5 4 C5.41445804 8.6626529 4.8317542 11.25803909 2 15 C-0.1875 16.8125 -0.1875 16.8125 -2 18 C-2.93065133 15.39417629 -3.14917407 14.35801776 -2.0625 11.75 C-1.711875 11.1725 -1.36125 10.595 -1 10 C-1.33 10 -1.66 10 -2 10 C-2.66 7.69 -3.32 5.38 -4 3 C-3.01 2.67 -2.02 2.34 -1 2 C-0.67 1.34 -0.34 0.68 0 0 Z " fill="#497CB7" transform="translate(749,551)"/>
<path d="M0 0 C1.65 0 3.3 0 5 0 C3.68 0.33 2.36 0.66 1 1 C1 1.66 1 2.32 1 3 C1.99 3.33 2.98 3.66 4 4 C4 9.94 4 15.88 4 22 C2.68 22 1.36 22 0 22 C0 14.74 0 7.48 0 0 Z " fill="#3B6DAC" transform="translate(141,427)"/>
<path d="M0 0 C5.61 0 11.22 0 17 0 C16.01 0.33 15.02 0.66 14 1 C14 1.66 14 2.32 14 3 C14.66 3.33 15.32 3.66 16 4 C11.18199479 5.57322619 7.13591608 6.49383808 2 6 C0.0625 4.5 0.0625 4.5 -1 3 C-0.67 2.01 -0.34 1.02 0 0 Z " fill="#D6E4F0" transform="translate(235,440)"/>
<path d="M0 0 C1.98 0 3.96 0 6 0 C6 1.98 6 3.96 6 6 C5.67 6 5.34 6 5 6 C5 4.35 5 2.7 5 1 C4.01 1 3.02 1 2 1 C2 9.25 2 17.5 2 26 C2.66 26 3.32 26 4 26 C4 26.66 4 27.32 4 28 C3.01 27.67 2.02 27.34 1 27 C-0.50156874 23.99686252 -0.09281204 21.20932478 -0.0625 17.875 C-0.05347656 16.59367187 -0.04445312 15.31234375 -0.03515625 13.9921875 C-0.02355469 13.00476563 -0.01195312 12.01734375 0 11 C-0.66 11 -1.32 11 -2 11 C-2 9.02 -2 7.04 -2 5 C-1.34 5 -0.68 5 0 5 C0 3.35 0 1.7 0 0 Z " fill="#587DA7" transform="translate(213,421)"/>
<path d="M0 0 C1.74545992 6.58881085 0.78353357 11.91529168 -2.5 17.875 C-5.02221602 22.50146481 -5.51000584 26.29330652 -5.75390625 31.50390625 C-6.09178564 34.93096865 -7.19818716 37.10143151 -9 40 C-10.56650587 35.99670723 -9.43816061 32.43968343 -8.4375 28.4375 C-8.26057617 27.7060376 -8.08365234 26.9745752 -7.90136719 26.22094727 C-5.69049644 17.35408365 -2.85699046 8.6757277 0 0 Z " fill="#F1CC4F" transform="translate(447,280)"/>
<path d="M0 0 C1.65 0.33 3.3 0.66 5 1 C5 2.98 5 4.96 5 7 C-0.94 7 -6.88 7 -13 7 C-13 6.01 -13 5.02 -13 4 C-9.04 4 -5.08 4 -1 4 C-0.67 2.68 -0.34 1.36 0 0 Z " fill="#3C6BA2" transform="translate(247,433)"/>
<path d="M0 0 C1.32 0 2.64 0 4 0 C4 6.27 4 12.54 4 19 C2.68 19 1.36 19 0 19 C0 12.73 0 6.46 0 0 Z " fill="#FEC30F" transform="translate(499,364)"/>
<path d="M0 0 C1.98 0 3.96 0 6 0 C5.67 0.66 5.34 1.32 5 2 C4.01 1.67 3.02 1.34 2 1 C2 7.93 2 14.86 2 22 C2.99 22 3.98 22 5 22 C5 17.71 5 13.42 5 9 C5.33 9 5.66 9 6 9 C6 13.95 6 18.9 6 24 C4.02 24 2.04 24 0 24 C0 16.08 0 8.16 0 0 Z " fill="#5A7FA9" transform="translate(256,427)"/>
<path d="M0 0 C2.45103548 0.98041419 3.76758786 1.6513818 5.25 3.875 C6 6 6 6 6 10 C0.39 10 -5.22 10 -11 10 C-11 9.01 -11 8.02 -11 7 C-7.04 7 -3.08 7 1 7 C0.67 4.69 0.34 2.38 0 0 Z " fill="#3C6AA1" transform="translate(201,430)"/>
<path d="M0 0 C5.28 0 10.56 0 16 0 C16 7 16 7 14 10 C14 7.69 14 5.38 14 3 C13.34 2.67 12.68 2.34 12 2 C11.67 3.98 11.34 5.96 11 8 C10.34 7.67 9.68 7.34 9 7 C9.33 6.01 9.66 5.02 10 4 C6.7 4 3.4 4 0 4 C0 2.68 0 1.36 0 0 Z " fill="#547EB0" transform="translate(422,119)"/>
<path d="M0 0 C1.9375 0.8125 1.9375 0.8125 4 2 C5.18681726 5.56045177 5.09689832 8.43808337 5.0625 12.1875 C5.05347656 13.45980469 5.04445313 14.73210937 5.03515625 16.04296875 C5.02355469 17.01878906 5.01195313 17.99460937 5 19 C4.34 19 3.68 19 3 19 C3 19.66 3 20.32 3 21 C2.34 21 1.68 21 1 21 C0.67 21.99 0.34 22.98 0 24 C-3.06533164 25.53266582 -6.26754272 25.10276471 -9.625 25.0625 C-10.33140625 25.05798828 -11.0378125 25.05347656 -11.765625 25.04882812 C-13.51045275 25.03703875 -15.255237 25.01910324 -17 25 C-17 24.67 -17 24.34 -17 24 C-11.72 23.67 -6.44 23.34 -1 23 C-0.67 21.02 -0.34 19.04 0 17 C0.66 16.01 1.32 15.02 2 14 C2.3168217 11.62244051 2.3168217 11.62244051 2.25 9.0625 C2.25515625 8.20785156 2.2603125 7.35320312 2.265625 6.47265625 C1.98713633 3.88025433 1.30669172 2.23485766 0 0 Z " fill="#6084B0" transform="translate(84,426)"/>
<path d="M0 0 C2.475 0.495 2.475 0.495 5 1 C5 5.62 5 10.24 5 15 C3.35 15 1.7 15 0 15 C0 10.05 0 5.1 0 0 Z " fill="#FDC610" transform="translate(498,190)"/>
<path d="M0 0 C0.66 1.32 1.32 2.64 2 4 C6.29 4 10.58 4 15 4 C15 4.99 15 5.98 15 7 C8.73 7 2.46 7 -4 7 C-3.67 5.35 -3.34 3.7 -3 2 C-2.01 1.34 -1.02 0.68 0 0 Z " fill="#4175B3" transform="translate(1134,527)"/>
<path d="M0 0 C6.6 0 13.2 0 20 0 C19.67 0.66 19.34 1.32 19 2 C18.34 1.67 17.68 1.34 17 1 C17 1.66 17 2.32 17 3 C13.43954823 4.18681726 10.56191663 4.09689832 6.8125 4.0625 C5.54019531 4.05347656 4.26789063 4.04445313 2.95703125 4.03515625 C1.49330078 4.01775391 1.49330078 4.01775391 0 4 C0 2.68 0 1.36 0 0 Z " fill="#3F6FA6" transform="translate(1129,505)"/>
<path d="M0 0 C1.32 0 2.64 0 4 0 C4 0.66 4 1.32 4 2 C4.66 2 5.32 2 6 2 C5.67 7.94 5.34 13.88 5 20 C4.01 20 3.02 20 2 20 C1.93941406 18.97519531 1.87882813 17.95039063 1.81640625 16.89453125 C1.73194974 15.53384305 1.64730433 14.17316657 1.5625 12.8125 C1.52318359 12.13896484 1.48386719 11.46542969 1.44335938 10.77148438 C1.21072435 7.10300898 0.82792989 3.58305794 0 0 Z " fill="#3D71B2" transform="translate(156,429)"/>
<path d="M0 0 C0.99 0.66 1.98 1.32 3 2 C3 2.66 3 3.32 3 4 C3.66 4.33 4.32 4.66 5 5 C4.67 5.66 4.34 6.32 4 7 C8.29 7 12.58 7 17 7 C17 8.65 17 10.3 17 12 C10.07 12 3.14 12 -4 12 C-4 5.82661592 -3.52927431 4.63217254 0 0 Z M1 4 C-1.0624994 5.81222534 -1.0624994 5.81222534 -3 8 C-3 8.99 -3 9.98 -3 11 C3.27 11 9.54 11 16 11 C16 10.01 16 9.02 16 8 C11.71 8 7.42 8 3 8 C2.34 6.68 1.68 5.36 1 4 Z " fill="#557CA6" transform="translate(1133,523)"/>
<path d="M0 0 C1.61841797 0.20882813 1.61841797 0.20882813 3.26953125 0.421875 C4.89955078 0.61523438 4.89955078 0.61523438 6.5625 0.8125 C7.80966797 0.99039062 7.80966797 0.99039062 9.08203125 1.171875 C9.08203125 1.501875 9.08203125 1.831875 9.08203125 2.171875 C6.44203125 2.171875 3.80203125 2.171875 1.08203125 2.171875 C1.08203125 6.131875 1.08203125 10.091875 1.08203125 14.171875 C0.09203125 13.841875 -0.89796875 13.511875 -1.91796875 13.171875 C-2.20368304 5.74330357 -2.20368304 5.74330357 0.08203125 2.171875 C-0.57796875 2.171875 -1.23796875 2.171875 -1.91796875 2.171875 C-1.91796875 2.831875 -1.91796875 3.491875 -1.91796875 4.171875 C-2.57796875 4.171875 -3.23796875 4.171875 -3.91796875 4.171875 C-3.91796875 7.801875 -3.91796875 11.431875 -3.91796875 15.171875 C-4.57796875 14.841875 -5.23796875 14.511875 -5.91796875 14.171875 C-5.99950808 12.58940793 -6.05740432 11.00571227 -6.10546875 9.421875 C-6.14027344 8.54015625 -6.17507812 7.6584375 -6.2109375 6.75 C-5.71366207 2.3739762 -4.56213708 0.26872026 0 0 Z " fill="#4772A5" transform="translate(114.91796875,428.828125)"/>
<path d="M0 0 C0.99 0.495 0.99 0.495 2 1 C2.37400786 3.32716 2.70764733 5.66117862 3 8 C3.33 8.33 3.66 8.66 4 9 C4.32351301 11.83972535 4.5130429 14.68073737 4.71875 17.53125 C4.73385265 19.9413605 4.73385265 19.9413605 6 21 C6.33333333 23.33333333 6.66666667 25.66666667 7 28 C7.33 28.33 7.66 28.66 8 29 C8.07226502 30.85287502 8.0838122 32.70833878 8.0625 34.5625 C8.05347656 35.57441406 8.04445313 36.58632813 8.03515625 37.62890625 C8.02355469 38.41136719 8.01195312 39.19382812 8 40 C7.67 40 7.34 40 7 40 C5.99539147 35.269332 4.99874319 30.53708111 4.00927734 25.80322266 C3.67191687 24.19469568 3.33242579 22.58661396 2.99072266 20.97900391 C2.49855075 18.66163473 2.01418763 16.34274639 1.53125 14.0234375 C1.30157532 12.95432632 1.30157532 12.95432632 1.06726074 11.86361694 C0.23910357 7.84381725 -0.15713146 4.10225336 0 0 Z " fill="#F3C73F" transform="translate(429,619)"/>
<path d="M0 0 C0.33 0 0.66 0 1 0 C1.72037087 4.26704789 2.43210938 8.5354238 3.13623047 12.80517578 C3.37643338 14.25445378 3.61890218 15.70335827 3.86376953 17.15185547 C4.21738141 19.2461038 4.56254821 21.34160521 4.90625 23.4375 C5.11572266 24.69433594 5.32519531 25.95117188 5.54101562 27.24609375 C6.02880311 31.23557269 6.07778043 34.98652989 6 39 C5.67 39 5.34 39 5 39 C2.56512252 32.21603319 1.56732502 25.88313382 1.2109375 18.6875 C1.17176928 16.03032563 1.17176928 16.03032563 0 14 C-0.07116382 11.62597499 -0.08409085 9.24999323 -0.0625 6.875 C-0.05347656 5.59367188 -0.04445313 4.31234375 -0.03515625 2.9921875 C-0.02355469 2.00476563 -0.01195312 1.01734375 0 0 Z " fill="#FDF3C0" transform="translate(423,586)"/>
<path d="M0 0 C0.99 0 1.98 0 3 0 C3 6.93 3 13.86 3 21 C2.01 21 1.02 21 0 21 C0 14.07 0 7.14 0 0 Z " fill="#396FAE" transform="translate(100,428)"/>
<path d="M0 0 C3.33773709 3.64116773 3.97864902 7.28607242 5 12 C2.03 12 -0.94 12 -4 12 C-3.52494322 10.18641846 -3.04483958 8.37415821 -2.5625 6.5625 C-2.29566406 5.55316406 -2.02882813 4.54382813 -1.75390625 3.50390625 C-1 1 -1 1 0 0 Z " fill="#DEEDF9" transform="translate(390,113)"/>
<path d="M0 0 C3.97497544 3.40712181 5.86793788 7.32760855 8 12 C5.69 12 3.38 12 1 12 C-3 5.25 -3 5.25 -3 3 C-2.34 3 -1.68 3 -1 3 C-0.67 3.66 -0.34 4.32 0 5 C0 3.35 0 1.7 0 0 Z " fill="#4979AD" transform="translate(806,260)"/>
<path d="M0 0 C0.66 0 1.32 0 2 0 C2.144375 1.134375 2.28875 2.26875 2.4375 3.4375 C2.61171478 6.80777201 2.61171478 6.80777201 4 8 C4.04092937 10.33297433 4.04241723 12.66705225 4 15 C4.66 15 5.32 15 6 15 C6.144375 16.134375 6.28875 17.26875 6.4375 18.4375 C6.61171478 21.80777201 6.61171478 21.80777201 8 23 C8.39666227 25.18019479 8.74315237 27.3696463 9.0625 29.5625 C9.23910156 30.76003906 9.41570312 31.95757813 9.59765625 33.19140625 C9.73042969 34.11824219 9.86320312 35.04507813 10 36 C9.34 35.67 8.68 35.34 8 35 C7.28686639 32.83962464 6.68164653 30.64338438 6.125 28.4375 C5.95645508 27.77580811 5.78791016 27.11411621 5.61425781 26.43237305 C5.25596506 25.02122282 4.90126129 23.60915739 4.54980469 22.19628906 C3.99727751 19.98912456 3.4265641 17.78734431 2.8515625 15.5859375 C2.48387435 14.16158748 2.11667291 12.73711171 1.75 11.3125 C1.57484863 10.64210693 1.39969727 9.97171387 1.21923828 9.28100586 C0.39800374 6.03287024 0 3.38426288 0 0 Z " fill="#F1C841" transform="translate(439,666)"/>
<path d="M0 0 C0.33 0 0.66 0 1 0 C1.93087909 3.93288364 2.11608885 7.57654163 2.09765625 11.61328125 C2.09443359 12.86044922 2.09121094 14.10761719 2.08789062 15.39257812 C2.07951172 16.68615234 2.07113281 17.97972656 2.0625 19.3125 C2.05798828 20.62541016 2.05347656 21.93832031 2.04882812 23.29101562 C2.03705949 26.5273901 2.0206176 29.76367178 2 33 C1.67 33 1.34 33 1 33 C0.65896535 29.85495307 0.32862537 26.70886583 0 23.5625 C-0.09539062 22.68400391 -0.19078125 21.80550781 -0.2890625 20.90039062 C-1.79222624 6.35191295 -1.79222624 6.35191295 0 0 Z " fill="#FEF7CE" transform="translate(429,536)"/>
<path d="M0 0 C0.33 0 0.66 0 1 0 C0.86095156 3.75028389 0.71258389 7.50014281 0.5625 11.25 C0.50352539 12.84521484 0.50352539 12.84521484 0.44335938 14.47265625 C0.40146484 15.49746094 0.35957031 16.52226562 0.31640625 17.578125 C0.27974854 18.52075195 0.24309082 19.46337891 0.20532227 20.43457031 C0.01959911 22.75511598 -0.41532276 24.75721467 -1 27 C-1.13929356 28.36676632 -1.24365301 29.7374567 -1.31640625 31.109375 C-1.35830078 31.86347656 -1.40019531 32.61757813 -1.44335938 33.39453125 C-1.48267578 34.17183594 -1.52199219 34.94914062 -1.5625 35.75 C-1.60568359 36.54277344 -1.64886719 37.33554687 -1.69335938 38.15234375 C-1.79902991 40.10137815 -1.89997966 42.05066748 -2 44 C-2.33 44 -2.66 44 -3 44 C-3.0289337 40.20834926 -3.04677601 36.41672673 -3.0625 32.625 C-3.07087891 31.54476563 -3.07925781 30.46453125 -3.08789062 29.3515625 C-3.09111328 28.3203125 -3.09433594 27.2890625 -3.09765625 26.2265625 C-3.10289307 25.27346191 -3.10812988 24.32036133 -3.11352539 23.33837891 C-3 21 -3 21 -2 19 C-1.79307806 16.7324804 -1.63328802 14.46053676 -1.5 12.1875 C-1.25464577 8.02962199 -0.9288832 4.06386398 0 0 Z " fill="#FCF1B9" transform="translate(420,416)"/>
<path d="M0 0 C4.29 0 8.58 0 13 0 C13 0.66 13 1.32 13 2 C14.32 2.33 15.64 2.66 17 3 C6.62116992 5.53252499 6.62116992 5.53252499 3 5 C1.1875 3.625 1.1875 3.625 0 2 C0 1.34 0 0.68 0 0 Z " fill="#E7F3FA" transform="translate(190,441)"/>
<path d="M0 0 C0.66 0 1.32 0 2 0 C6.59225513 14.59681093 6.59225513 14.59681093 6 22 C6.66 22 7.32 22 8 22 C8 24.64 8 27.28 8 30 C5.83084428 25.88808522 4.66672174 21.71459173 3.4375 17.25 C3.21642578 16.4765625 2.99535156 15.703125 2.76757812 14.90625 C1.38772751 9.93712031 0.52133958 5.13138729 0 0 Z " fill="#FEF8CA" transform="translate(445,655)"/>
<path d="M0 0 C6 7.71428571 6 7.71428571 6 11 C3.69 11 1.38 11 -1 11 C-1.99 9.02 -2.98 7.04 -4 5 C-2.68 5 -1.36 5 0 5 C0 3.35 0 1.7 0 0 Z " fill="#4F7DB3" transform="translate(748,569)"/>
<path d="M0 0 C0.33 0 0.66 0 1 0 C1 2.31 1 4.62 1 7 C1.66 7 2.32 7 3 7 C3 8.32 3 9.64 3 11 C3.66 11 4.32 11 5 11 C5.33 10.01 5.66 9.02 6 8 C6.61875 8.78375 7.2375 9.5675 7.875 10.375 C9.89858661 12.96837647 9.89858661 12.96837647 12 15 C9.3125 15.8125 9.3125 15.8125 6 16 C2.85747998 13.48598399 1.27676963 11.8303089 0 8 C-0.12781786 5.32605036 -0.04391871 2.67904143 0 0 Z " fill="#4672A9" transform="translate(228,434)"/>
<path d="M0 0 C0.95892499 2.58909747 1.0552238 3.81592068 0.25 6.5 C-1 9 -1 9 -2.54614258 10.84472656 C-4.27796581 13.4120709 -4.41808003 14.91302496 -4.51171875 17.984375 C-4.54716797 18.91894531 -4.58261719 19.85351562 -4.61914062 20.81640625 C-4.64169922 21.78449219 -4.66425781 22.75257813 -4.6875 23.75 C-4.72166016 24.73355469 -4.75582031 25.71710938 -4.79101562 26.73046875 C-4.87335273 29.15353199 -4.94254838 31.57623998 -5 34 C-5.33 34 -5.66 34 -6 34 C-6.19632025 30.3754207 -6.38055978 26.75032733 -6.5625 23.125 C-6.64661133 21.57619141 -6.64661133 21.57619141 -6.73242188 19.99609375 C-6.78076172 19.00996094 -6.82910156 18.02382812 -6.87890625 17.0078125 C-6.9260376 16.09660645 -6.97316895 15.18540039 -7.02172852 14.24658203 C-7 12 -7 12 -6 10 C-5.34 10 -4.68 10 -4 10 C-3.896875 9.278125 -3.79375 8.55625 -3.6875 7.8125 C-2.94013068 4.75508007 -1.71954811 2.61670365 0 0 Z " fill="#F9E597" transform="translate(502,173)"/>
<path d="M0 0 C2.49361571 1.20381448 4.68143083 2.45428722 7 4 C6.5206753 8.31392226 5.2542015 10.16569547 2 13 C2 11.35 2 9.7 2 8 C2.66 7.67 3.32 7.34 4 7 C3.67 6.01 3.34 5.02 3 4 C2.01 3.67 1.02 3.34 0 3 C-0.0825 3.61875 -0.165 4.2375 -0.25 4.875 C-1 7 -1 7 -3.0625 8.25 C-3.701875 8.4975 -4.34125 8.745 -5 9 C-3.7508258 5.54074837 -2.32472205 2.85306797 0 0 Z " fill="#EEC845" transform="translate(513,138)"/>
<path d="M0 0 C0.33 1.32 0.66 2.64 1 4 C1.66 4 2.32 4 3 4 C4.125 9.625 4.125 9.625 3 13 C0.69 13 -1.62 13 -4 13 C-2.68 8.71 -1.36 4.42 0 0 Z " fill="#527DB4" transform="translate(380,122)"/>
<path d="M0 0 C0 0.66 0 1.32 0 2 C-0.69867188 2.08636719 -1.39734375 2.17273438 -2.1171875 2.26171875 C-4.83968863 2.68204824 -7.38196209 3.13743453 -10 4 C-11.75568004 6.45748398 -11.75568004 6.45748398 -12 9 C-11.34 9 -10.68 9 -10 9 C-9.67 8.34 -9.34 7.68 -9 7 C-9 8.32 -9 9.64 -9 11 C-10.98 11 -12.96 11 -15 11 C-14.80839429 6.88047733 -14.22298348 5.25017659 -11.4375 2.125 C-7.70813425 -0.71512526 -4.54499343 -0.39180978 0 0 Z " fill="#567AA4" transform="translate(309,418)"/>
<path d="M0 0 C0.66 0.33 1.32 0.66 2 1 C3.37634409 7.99641577 3.37634409 7.99641577 2.0625 11.5 C1.711875 11.995 1.36125 12.49 1 13 C0.34 13 -0.32 13 -1 13 C-1 11.68 -1 10.36 -1 9 C-1.66 9 -2.32 9 -3 9 C-3.1875 5.625 -3.1875 5.625 -3 2 C-2.01 1.34 -1.02 0.68 0 0 Z " fill="#3D70B0" transform="translate(232,432)"/>
<path d="M0 0 C0.66 0 1.32 0 2 0 C3.2982126 5.76081841 4.25706972 11.08739655 4 17 C4.66 17 5.32 17 6 17 C6 20.3 6 23.6 6 27 C5.67 27 5.34 27 5 27 C2.17079464 18.0974338 0.98608089 9.24595846 0 0 Z " fill="#FEF5C4" transform="translate(439,627)"/>
<path d="M0 0 C0.66 0 1.32 0 2 0 C3.42258812 3.82320557 4.24042276 6.91281305 4 11 C4.66 11 5.32 11 6 11 C7.59555725 14.49028148 8.32049797 17.15402433 8 21 C7 22 7 22 4.4375 22.0625 C3.633125 22.041875 2.82875 22.02125 2 22 C3.32 21.34 4.64 20.68 6 20 C5.81824219 19.4652002 5.63648438 18.93040039 5.44921875 18.37939453 C4.62968956 15.96230875 3.81479267 13.54368634 3 11.125 C2.71382813 10.28324219 2.42765625 9.44148437 2.1328125 8.57421875 C1.86210937 7.76855469 1.59140625 6.96289062 1.3125 6.1328125 C1.06113281 5.38918457 0.80976563 4.64555664 0.55078125 3.87939453 C0 2 0 2 0 0 Z " fill="#FEF9CD" transform="translate(461,711)"/>
<path d="M0 0 C1.65 0 3.3 0 5 0 C5 2.97 5 5.94 5 9 C3.35 9 1.7 9 0 9 C0 6.03 0 3.06 0 0 Z " fill="#FBBE0A" transform="translate(498,452)"/>
<path d="M0 0 C2.9375 0.4375 2.9375 0.4375 4.9375 2.4375 C4.9375 3.4275 4.9375 4.4175 4.9375 5.4375 C1.3075 5.4375 -2.3225 5.4375 -6.0625 5.4375 C-3.86402672 0.55200382 -3.86402672 0.55200382 0 0 Z " fill="#EAF6FC" transform="translate(196.0625,430.5625)"/>
<path d="M0 0 C1 2 1 2 0.0625 5.125 C-0.288125 6.07375 -0.63875 7.0225 -1 8 C-1.66 8 -2.32 8 -3 8 C-3.4021875 9.36125 -3.4021875 9.36125 -3.8125 10.75 C-4.90131632 13.72991834 -5.86391101 15.68590359 -8 18 C-8.66 18 -9.32 18 -10 18 C-8.47146065 13.72813475 -6.28490519 10.00673137 -3.875 6.1875 C-3.50246094 5.59001953 -3.12992187 4.99253906 -2.74609375 4.37695312 C-1.8342952 2.91573749 -0.91764024 1.45755415 0 0 Z " fill="#F2C941" transform="translate(505,150)"/>
<path d="M0 0 C3.0625 0.1875 3.0625 0.1875 5.0625 2.1875 C5.0625 3.1775 5.0625 4.1675 5.0625 5.1875 C1.7625 5.1875 -1.5375 5.1875 -4.9375 5.1875 C-3.69966216 0.23614865 -3.69966216 0.23614865 0 0 Z " fill="#E7F3FB" transform="translate(239.9375,430.8125)"/>
<path d="M0 0 C1 2 1 2 0.546875 4.05859375 C0.28390625 4.84363281 0.0209375 5.62867188 -0.25 6.4375 C-0.50265625 7.21996094 -0.7553125 8.00242188 -1.015625 8.80859375 C-2 11 -2 11 -3.41015625 12.3984375 C-5.67961169 14.68462112 -6.78960279 17.29851244 -8.1875 20.1875 C-8.71730469 21.27417969 -9.24710937 22.36085937 -9.79296875 23.48046875 C-10.19128906 24.31191406 -10.58960938 25.14335937 -11 26 C-11.33 25.34 -11.66 24.68 -12 24 C-10.99609375 21.6015625 -10.99609375 21.6015625 -9.4375 18.625 C-8.88707031 17.56023437 -8.33664062 16.49546875 -7.76953125 15.3984375 C-6.89361328 13.71621094 -6.89361328 13.71621094 -6 12 C-4.8709423 9.75203343 -3.74571837 7.50213573 -2.625 5.25 C-1.75 3.5 -0.875 1.75 0 0 Z " fill="#F1CA4A" transform="translate(489,177)"/>
<path d="M0 0 C8.9100346 -0.62283737 8.9100346 -0.62283737 13.0625 1.75 C14.95551924 3.94834492 15.69461464 5.14973668 16 8 C13.69 8 11.38 8 9 8 C8.67 7.34 8.34 6.68 8 6 C5.98330173 4.86649466 5.98330173 4.86649466 4 4 C7.71599191 3.79913557 8.77208445 3.8480563 12 6 C12.33 5.34 12.66 4.68 13 4 C12.34 4 11.68 4 11 4 C11 3.34 11 2.68 11 2 C7.37 1.67 3.74 1.34 0 1 C0 0.67 0 0.34 0 0 Z " fill="#557BA7" transform="translate(356,105)"/>
<path d="M0 0 C2.83398763 0.09606738 5.02345099 0.27250432 7.6875 1.125 C7.6875 1.785 7.6875 2.445 7.6875 3.125 C8.3475 3.125 9.0075 3.125 9.6875 3.125 C9.3575 4.115 9.0275 5.105 8.6875 6.125 C7.6975 5.465 6.7075 4.805 5.6875 4.125 C0.84627396 4.35542759 0.84627396 4.35542759 -3.25 6.6875 C-3.600625 7.161875 -3.95125 7.63625 -4.3125 8.125 C-3.80646008 5.95625748 -3.31266187 4.12532373 -2.3125 2.125 C-2.9725 1.795 -3.6325 1.465 -4.3125 1.125 C-3.3125 0.125 -3.3125 0.125 0 0 Z " fill="#4171AD" transform="translate(359.3125,105.875)"/>
<path d="M0 0 C0.33 0 0.66 0 1 0 C1.86905722 3.57989022 2.71762696 7.16433193 3.5625 10.75 C3.80935547 11.76578125 4.05621094 12.7815625 4.31054688 13.828125 C4.53935547 14.8078125 4.76816406 15.7875 5.00390625 16.796875 C5.21861572 17.69760742 5.4333252 18.59833984 5.65454102 19.52636719 C6.00600309 22.04298464 5.80151737 23.61250145 5 26 C4.67 24.02 4.34 22.04 4 20 C3.34 20 2.68 20 2 20 C0.2120463 13.1834265 -0.23668569 7.03482474 0 0 Z " fill="#FEF3C1" transform="translate(433,644)"/>
<path d="M0 0 C3.96 0 7.92 0 12 0 C12 8.25 12 16.5 12 25 C11.67 25 11.34 25 11 25 C11 17.08 11 9.16 11 1 C9.02 1 7.04 1 5 1 C4.67 1.99 4.34 2.98 4 4 C2.68 2.68 1.36 1.36 0 0 Z " fill="#EDFAFF" transform="translate(123,426)"/>
<path d="M0 0 C1.2065625 0.0309375 1.2065625 0.0309375 2.4375 0.0625 C3.0625 2.4375 3.0625 2.4375 3.4375 5.0625 C2.7775 5.7225 2.1175 6.3825 1.4375 7.0625 C-1.1875 6.6875 -1.1875 6.6875 -3.5625 6.0625 C-3.605221 4.39638095 -3.60313832 2.72867115 -3.5625 1.0625 C-2.5625 0.0625 -2.5625 0.0625 0 0 Z " fill="#5178A6" transform="translate(101.5625,416.9375)"/>
<path d="M0 0 C0.33 0 0.66 0 1 0 C0.38580826 8.59868438 -1.80907021 16.69484752 -4 25 C-4.33 25 -4.66 25 -5 25 C-5.125 18.25 -5.125 18.25 -4 16 C-3.84621167 14.23143424 -3.72573063 12.45987948 -3.625 10.6875 C-3.27717817 6.41265749 -2.81798372 3.40506366 0 0 Z " fill="#F1C439" transform="translate(446,312)"/>
<path d="M0 0 C0.33 0 0.66 0 1 0 C1.10957031 0.66644531 1.21914063 1.33289063 1.33203125 2.01953125 C2.36428905 8.02005421 3.70439778 13.77386774 5.51171875 19.58984375 C6.02745791 22.13553226 5.83966356 23.57117452 5 26 C4.34 25.67 3.68 25.34 3 25 C3 21.7 3 18.4 3 15 C2.34 15 1.68 15 1 15 C-0.03590199 9.94997778 -0.10251672 5.12583611 0 0 Z " fill="#F3C94A" transform="translate(440,635)"/>
<path d="M0 0 C2.12508244 3.18762365 2.5020163 5.26512223 3 9 C2.34 9 1.68 9 1 9 C0.67 10.98 0.34 12.96 0 15 C-0.66 14.67 -1.32 14.34 -2 14 C-2 11.03 -2 8.06 -2 5 C-1.34 5 -0.68 5 0 5 C0 3.35 0 1.7 0 0 Z " fill="#3D6DA7" transform="translate(282,422)"/>
<path d="M0 0 C2.875 -0.1875 2.875 -0.1875 6 0 C6.66 0.99 7.32 1.98 8 3 C10.05003955 4.19232613 10.05003955 4.19232613 12 5 C3.42857143 6.42857143 3.42857143 6.42857143 0 4 C0 2.68 0 1.36 0 0 Z " fill="#4D76A8" transform="translate(351,127)"/>
<path d="M0 0 C1.32 0.33 2.64 0.66 4 1 C3.57742724 2.4835001 3.13643678 3.96176424 2.6875 5.4375 C2.44386719 6.26121094 2.20023437 7.08492188 1.94921875 7.93359375 C1.63597656 8.61550781 1.32273437 9.29742187 1 10 C0.01 10.33 -0.98 10.66 -2 11 C-3.13643966 7.59068103 -2.86747764 6.99664544 -1.5625 3.8125 C-1.13130859 2.73935547 -1.13130859 2.73935547 -0.69140625 1.64453125 C-0.46324219 1.10183594 -0.23507812 0.55914062 0 0 Z " fill="#4D79B3" transform="translate(384,112)"/>
<path d="M0 0 C1 2 1 2 0.56274414 3.87939453 C0.30614014 4.62302246 0.04953613 5.36665039 -0.21484375 6.1328125 C-0.48876953 6.93847656 -0.76269531 7.74414062 -1.04492188 8.57421875 C-1.48674805 9.83685547 -1.48674805 9.83685547 -1.9375 11.125 C-2.22818359 11.97449219 -2.51886719 12.82398438 -2.81835938 13.69921875 C-3.53893001 15.80186749 -4.26638315 17.90187477 -5 20 C-5.33 20 -5.66 20 -6 20 C-5.60146354 13.41727705 -4.86760841 7.02334972 -2 1 C-1.34 0.67 -0.68 0.34 0 0 Z " fill="#FDF4C3" transform="translate(459,242)"/>
<path d="M0 0 C-0.33 1.65 -0.66 3.3 -1 5 C-4.63 4.67 -8.26 4.34 -12 4 C-12 3.01 -12 2.02 -12 1 C-10.37512529 0.83211627 -8.75009558 0.66573213 -7.125 0.5 C-6.22007812 0.4071875 -5.31515625 0.314375 -4.3828125 0.21875 C-2 0 -2 0 0 0 Z " fill="#4072B0" transform="translate(749,550)"/>
<path d="M0 0 C0.33 0 0.66 0 1 0 C1.33784575 5.74337777 1.22475005 9.10315733 -2 14 C-3.13294595 17.29677066 -4.07961915 20.63832526 -5 24 C-6.14184472 20.6252898 -5.84408845 18.60566936 -4.78515625 15.234375 C-4.37426758 13.90019531 -4.37426758 13.90019531 -3.95507812 12.5390625 C-3.66052734 11.61867188 -3.36597656 10.69828125 -3.0625 9.75 C-2.77181641 8.81414062 -2.48113281 7.87828125 -2.18164062 6.9140625 C-1.46343503 4.6063855 -0.73596262 2.30206318 0 0 Z " fill="#FDF2B7" transform="translate(456,280)"/>
<path d="M0 0 C1.65 0 3.3 0 5 0 C5 7.59 5 15.18 5 23 C3.35 23 1.7 23 0 23 C0.99 22.34 1.98 21.68 3 21 C3.41428346 19.06923522 3.41428346 19.06923522 3.29296875 16.8671875 C3.28330078 16.06152344 3.27363281 15.25585938 3.26367188 14.42578125 C3.23853516 13.58402344 3.21339844 12.74226563 3.1875 11.875 C3.17396484 11.02550781 3.16042969 10.17601562 3.14648438 9.30078125 C3.11108219 7.20025163 3.05727401 5.10004707 3 3 C2.01 2.67 1.02 2.34 0 2 C0 1.34 0 0.68 0 0 Z " fill="#38679C" transform="translate(128,427)"/>
<path d="M0 0 C0.33 0 0.66 0 1 0 C1 4.62 1 9.24 1 14 C0.01 13.67 -0.98 13.34 -2 13 C-2 9.37 -2 5.74 -2 2 C-1.34 2 -0.68 2 0 2 C0 1.34 0 0.68 0 0 Z " fill="#3C6DAB" transform="translate(90,429)"/>
<path d="M0 0 C1.09178911 3.27536732 0.93042848 4.04413619 0.00390625 7.23046875 C-0.22490234 8.03291016 -0.45371094 8.83535156 -0.68945312 9.66210938 C-0.93630859 10.49548828 -1.18316406 11.32886719 -1.4375 12.1875 C-1.68048828 13.03248047 -1.92347656 13.87746094 -2.17382812 14.74804688 C-2.77493493 16.8342411 -3.38647834 18.91742301 -4 21 C-4.33 21 -4.66 21 -5 21 C-4.18739054 4.18739054 -4.18739054 4.18739054 0 0 Z " fill="#FEFBD6" transform="translate(443,289)"/>
<path d="M0 0 C1.65319436 5.52317207 1.02178411 10.91385745 -1.5 16.0625 C-1.995 16.701875 -2.49 17.34125 -3 18 C-3.33 18 -3.66 18 -4 18 C-3.48914188 11.56318772 -2.27057103 6.04057576 0 0 Z " fill="#F1C53D" transform="translate(447,280)"/>
<path d="M0 0 C0.66 0.33 1.32 0.66 2 1 C-0.97 6.28 -3.94 11.56 -7 17 C-7.33 17 -7.66 17 -8 17 C-8 15.35 -8 13.7 -8 12 C-7.34 12 -6.68 12 -6 12 C-5.896875 11.46375 -5.79375 10.9275 -5.6875 10.375 C-4.81907303 7.37497956 -3.44379704 4.7620465 -2 2 C-1.34 2 -0.68 2 0 2 C0 1.34 0 0.68 0 0 Z " fill="#F2C436" transform="translate(507,161)"/>
<path d="M0 0 C0.33 0 0.66 0 1 0 C0.91288896 2.75150737 0.80600385 5.49981633 0.6875 8.25 C0.66494141 9.02730469 0.64238281 9.80460937 0.61914062 10.60546875 C0.41539044 14.93979093 0.22824376 17.78041105 -3 21 C-3.43230491 13.65081658 -1.81774185 7.09784913 0 0 Z " fill="#F1C543" transform="translate(435,324)"/>
<path d="M0 0 C0.66 0.33 1.32 0.66 2 1 C0.29977612 8.12647031 -1.57919742 15.0834212 -4 22 C-4.33 22 -4.66 22 -5 22 C-4.85950482 20.52031676 -4.71245174 19.04125484 -4.5625 17.5625 C-4.48128906 16.73878906 -4.40007812 15.91507812 -4.31640625 15.06640625 C-4 13 -4 13 -3 12 C-2.63239269 9.67182036 -2.29758419 7.3381615 -2 5 C-1.34 5 -0.68 5 0 5 C0 3.35 0 1.7 0 0 Z " fill="#FEF6C3" transform="translate(449,267)"/>
<path d="M0 0 C0.33 0 0.66 0 1 0 C1.29296875 6.0546875 1.29296875 6.0546875 1 8 C0.01 8.66 -0.98 9.32 -2 10 C-2.67939174 11.99571323 -3.34561559 13.99594773 -4 16 C-5.5625 17.69140625 -5.5625 17.69140625 -7 19 C-5.17778624 12.38757278 -2.94776396 6.19479329 0 0 Z " fill="#F4CD4D" transform="translate(472,211)"/>
<path d="M0 0 C0.33 0 0.66 0 1 0 C0.51298949 7.59064664 -0.99763587 14.67059167 -3 22 C-3.33 22 -3.66 22 -4 22 C-3.67942955 14.12944269 -3.3161515 7.209025 0 0 Z " fill="#FEF8CD" transform="translate(434,324)"/>
<path d="M0 0 C1.22419163 3.93795909 0.48320272 6.16112237 -1 10 C-1.66 10 -2.32 10 -3 10 C-2.9175 11.093125 -2.835 12.18625 -2.75 13.3125 C-2.8325 14.529375 -2.915 15.74625 -3 17 C-5.015625 18.73046875 -5.015625 18.73046875 -7 20 C-5.27068234 12.99102311 -3.16032658 6.49711809 0 0 Z " fill="#F0C434" transform="translate(464,232)"/>
<path d="M0 0 C1.7435756 3.11930825 2.54645178 5.99110451 3.1875 9.5 C3.36667969 10.4384375 3.54585938 11.376875 3.73046875 12.34375 C3.99098064 14.91111354 3.80670869 16.57415258 3 19 C0.04328652 12.47059106 -0.35368021 7.12600133 0 0 Z " fill="#FDF3BA" transform="translate(429,625)"/>
<path d="M0 0 C2.01635978 3.02453967 3.03246502 5.63075348 4.1875 9.0625 C4.55230469 10.12597656 4.91710937 11.18945312 5.29296875 12.28515625 C6 15 6 15 5 17 C3 16 3 16 1.9140625 13.80078125 C0.95491255 10.86184742 0.59753701 8.26592867 0.375 5.1875 C0.30023438 4.21167969 0.22546875 3.23585938 0.1484375 2.23046875 C0.09945313 1.49441406 0.05046875 0.75835938 0 0 Z " fill="#FCEFB6" transform="translate(448,702)"/>
<path d="M0 0 C0.33 0 0.66 0 1 0 C1 2.97 1 5.94 1 9 C3.64 9 6.28 9 9 9 C8.34 9.66 7.68 10.32 7 11 C6.01 11 5.02 11 4 11 C4 11.66 4 12.32 4 13 C3.01 13 2.02 13 1 13 C-0.32229189 10.35541621 -0.09677194 8.32238699 -0.0625 5.375 C-0.05347656 4.37210938 -0.04445313 3.36921875 -0.03515625 2.3359375 C-0.02355469 1.56507813 -0.01195312 0.79421875 0 0 Z " fill="#507BAD" transform="translate(736,554)"/>
<path d="M0 0 C-1.2065625 0.9590625 -1.2065625 0.9590625 -2.4375 1.9375 C-4.2750504 3.40603502 -4.2750504 3.40603502 -6 5 C-6.23653523 7.52596259 -6.42173692 10.03107207 -6.5625 12.5625 C-6.60568359 13.27341797 -6.64886719 13.98433594 -6.69335938 14.71679688 C-6.79971777 16.47761912 -6.90038846 18.2387832 -7 20 C-7.33 20 -7.66 20 -8 20 C-8.08089542 17.22858283 -8.14044062 14.45952181 -8.1875 11.6875 C-8.22520508 10.50897461 -8.22520508 10.50897461 -8.26367188 9.30664062 C-8.27333984 8.54931641 -8.28300781 7.79199219 -8.29296875 7.01171875 C-8.3086792 6.31522217 -8.32438965 5.61872559 -8.34057617 4.90112305 C-7.48602833 0.13096959 -4.29368885 -0.34813693 0 0 Z " fill="#D3E4F4" transform="translate(154,431)"/>
<path d="M0 0 C0.33 0 0.66 0 1 0 C1.66 5.94 2.32 11.88 3 18 C2.01 17.34 1.02 16.68 0 16 C-0.22107787 13.2114711 -0.28107535 10.65346819 -0.1875 7.875 C-0.17396484 7.12089844 -0.16042969 6.36679687 -0.14648438 5.58984375 C-0.11109985 3.72625873 -0.05729167 1.86304022 0 0 Z " fill="#F3C740" transform="translate(433,595)"/>
<path d="M0 0 C3.08785543 2.05857029 3.78720854 2.65038549 5 6 C5.1953125 9.015625 5.1953125 9.015625 5.125 12.25 C5.10695312 13.32765625 5.08890625 14.4053125 5.0703125 15.515625 C5.04710937 16.33546875 5.02390625 17.1553125 5 18 C4.34 18 3.68 18 3 18 C3.02320312 17.32453125 3.04640625 16.6490625 3.0703125 15.953125 C3.09738281 14.61507813 3.09738281 14.61507813 3.125 13.25 C3.15980469 11.92742187 3.15980469 11.92742187 3.1953125 10.578125 C2.98921145 7.85759115 2.33423899 6.3450261 1 4 C0.63215869 2.6757713 0.28797019 1.34386088 0 0 Z " fill="#446FA2" transform="translate(124,427)"/>
<path d="M0 0 C0.66 0 1.32 0 2 0 C0.71291613 5.54436129 -0.91864693 10.70201036 -3 16 C-3.33 16 -3.66 16 -4 16 C-4.6319296 9.99666876 -2.37544123 5.36595205 0 0 Z " fill="#F1C53E" transform="translate(461,260)"/>
<path d="M0 0 C1.16161779 2.86578759 0.9946154 4.01630163 0.00390625 7.015625 C-0.70958984 8.61664063 -0.70958984 8.61664063 -1.4375 10.25 C-1.91058594 11.32765625 -2.38367188 12.4053125 -2.87109375 13.515625 C-3.24363281 14.33546875 -3.61617188 15.1553125 -4 16 C-4.33 16 -4.66 16 -5 16 C-5 14.02 -5 12.04 -5 10 C-4.34 10 -3.68 10 -3 10 C-2.87625 9.278125 -2.7525 8.55625 -2.625 7.8125 C-2.0095069 5.04278106 -1.11555626 2.6029646 0 0 Z " fill="#F1CA48" transform="translate(472,232)"/>
<path d="M0 0 C1 2 1 2 0.22265625 4.3828125 C-0.16019531 5.28773438 -0.54304688 6.19265625 -0.9375 7.125 C-1.31777344 8.03507813 -1.69804687 8.94515625 -2.08984375 9.8828125 C-2.39019531 10.58148438 -2.69054687 11.28015625 -3 12 C-3.99 12 -4.98 12 -6 12 C-4.43358249 7.69235185 -2.31663844 3.93828536 0 0 Z " fill="#FDF4C6" transform="translate(509,161)"/>
<path d="M0 0 C3.875 1.75 3.875 1.75 5 4 C5.25 6.9375 5.25 6.9375 5 10 C4.01 10.99 3.02 11.98 2 13 C2 9.37 2 5.74 2 2 C1.34 2 0.68 2 0 2 C0 1.34 0 0.68 0 0 Z " fill="#5882AC" transform="translate(749,551)"/>
<path d="M0 0 C-1.32 0 -2.64 0 -4 0 C-3.67 1.65 -3.34 3.3 -3 5 C-3.99 4.34 -4.98 3.68 -6 3 C-7.9896995 2.60986284 -9.99019869 2.26797351 -12 2 C-10.11821903 -0.4044979 -9.00775285 -0.99790027 -6 -1.8125 C-3 -2 -3 -2 0 0 Z " fill="#4573A7" transform="translate(160,429)"/>
<path d="M0 0 C0.125 2.875 0.125 2.875 0 6 C-0.66 6.66 -1.32 7.32 -2 8 C-2.66 8 -3.32 8 -4 8 C-4.66 5.69 -5.32 3.38 -6 1 C-3 0 -3 0 0 0 Z " fill="#5381B9" transform="translate(751,553)"/>
<path d="M0 0 C0.33 0 0.66 0 1 0 C1 2.64 1 5.28 1 8 C0.34 8 -0.32 8 -1 8 C-1.12375 8.94875 -1.2475 9.8975 -1.375 10.875 C-2 14 -2 14 -4 16 C-3.27275406 10.47293087 -1.66554027 5.30039859 0 0 Z " fill="#F0C435" transform="translate(456,252)"/>
<path d="M0 0 C0.33 0 0.66 0 1 0 C1.19406478 1.64507218 1.38007935 3.29109594 1.5625 4.9375 C1.66691406 5.85402344 1.77132813 6.77054687 1.87890625 7.71484375 C1.91886719 8.46894531 1.95882813 9.22304688 2 10 C1 11 1 11 -2.0625 11.0625 C-3.031875 11.041875 -4.00125 11.02125 -5 11 C-3.68 10.67 -2.36 10.34 -1 10 C-1.020625 8.72125 -1.04125 7.4425 -1.0625 6.125 C-1.125 2.25 -1.125 2.25 0 0 Z " fill="#F3CA4E" transform="translate(504,451)"/>
<path d="M0 0 C1.9375 0.5625 1.9375 0.5625 4 2 C4.75 5.625 4.75 5.625 5 9 C3.68 8.67 2.36 8.34 1 8 C0.67 5.36 0.34 2.72 0 0 Z " fill="#3C72B3" transform="translate(201,430)"/>
<path d="M0 0 C1.98 0 3.96 0 6 0 C5.67 1.32 5.34 2.64 5 4 C4.67 3.34 4.34 2.68 4 2 C3.01 2 2.02 2 1 2 C1 3.98 1 5.96 1 8 C-1 5 -1 5 -0.625 2.3125 C-0.41875 1.549375 -0.2125 0.78625 0 0 Z " fill="#5D80A6" transform="translate(284,410)"/>
<path d="M0 0 C2.46800047 1.15173355 4.04783565 2.04783565 6 4 C6 4.99 6 5.98 6 7 C3.69 7 1.38 7 -1 7 C-0.01 6.01 0.98 5.02 2 4 C1.34 2.68 0.68 1.36 0 0 Z " fill="#6085B0" transform="translate(431,107)"/>
<path d="M0 0 C0.95651196 2.58258228 1.03620881 3.8650399 0.3125 6.5625 C-1.12035293 9.22351258 -2.47085828 10.39821025 -5 12 C-4.54738642 10.56068883 -4.08767021 9.12361001 -3.625 7.6875 C-3.24214844 6.48673828 -3.24214844 6.48673828 -2.8515625 5.26171875 C-2 3 -2 3 0 0 Z " fill="#FCF1BE" transform="translate(502,173)"/>
<path d="M0 0 C1.32 0 2.64 0 4 0 C4 1.65 4 3.3 4 5 C2.35 5 0.7 5 -1 5 C-0.67 3.35 -0.34 1.7 0 0 Z " fill="#3A69A1" transform="translate(274,453)"/>
<path d="M0 0 C1.65 0 3.3 0 5 0 C5 1.65 5 3.3 5 5 C2.69 5 0.38 5 -2 5 C-2 4.34 -2 3.68 -2 3 C-0.35 3 1.3 3 3 3 C3 2.34 3 1.68 3 1 C2.01 0.67 1.02 0.34 0 0 Z " fill="#57799F" transform="translate(220,446)"/>
<path d="M0 0 C0.33 0 0.66 0 1 0 C1 3.96 1 7.92 1 12 C0.01 12 -0.98 12 -2 12 C-2.28571429 3.42857143 -2.28571429 3.42857143 0 0 Z " fill="#386CAC" transform="translate(260,437)"/>
<path d="M0 0 C0.66 0 1.32 0 2 0 C1.01 4.62 0.02 9.24 -1 14 C-1.33 14 -1.66 14 -2 14 C-2.1799928 8.78020872 -1.97094808 4.92737019 0 0 Z " fill="#F0C53B" transform="translate(449,298)"/>
<path d="M0 0 C0.66 0 1.32 0 2 0 C1.57316761 1.58624235 1.13303842 3.1689098 0.6875 4.75 C0.44386719 5.63171875 0.20023437 6.5134375 -0.05078125 7.421875 C-1.02125331 10.05772505 -2.21005644 11.85407326 -4 14 C-4.37169941 9.6635069 -3.31392722 7.60972647 -1 4 C-0.30420546 1.80869466 -0.30420546 1.80869466 0 0 Z " fill="#FEFBD3" transform="translate(471,209)"/>
<path d="M0 0 C2.31 0 4.62 0 7 0 C7 0.66 7 1.32 7 2 C5.02 2 3.04 2 1 2 C0.67 3.32 0.34 4.64 0 6 C-0.66 6 -1.32 6 -2 6 C-1.34 4.02 -0.68 2.04 0 0 Z " fill="#5B7EAB" transform="translate(387,105)"/>
<path d="M0 0 C0.33 0 0.66 0 1 0 C1 2.31 1 4.62 1 7 C1.66 7 2.32 7 3 7 C3.66 8.98 4.32 10.96 5 13 C4.01 13 3.02 13 2 13 C-0.24828052 8.50343896 -0.16682272 4.92127034 0 0 Z " fill="#5D83AF" transform="translate(228,434)"/>
<path d="M0 0 C3.25696479 0.41755959 4.63443291 0.63443291 7 3 C6.625 5.125 6.625 5.125 6 7 C5.01 5.35 4.02 3.7 3 2 C2.01 3.485 2.01 3.485 1 5 C0.34 3.68 -0.32 2.36 -1 1 C-0.67 0.67 -0.34 0.34 0 0 Z " fill="#4572A4" transform="translate(200,429)"/>
<path d="M0 0 C2.97 0.33 5.94 0.66 9 1 C6.90217213 3.09782787 5.6200793 3.6509396 2.875 4.625 C2.15054688 4.88539063 1.42609375 5.14578125 0.6796875 5.4140625 C-0.15175781 5.70410156 -0.15175781 5.70410156 -1 6 C-0.67 5.01 -0.34 4.02 0 3 C0.66 2.67 1.32 2.34 2 2 C1.34 1.34 0.68 0.68 0 0 Z " fill="#3D6A9F" transform="translate(236,427)"/>
<path d="M0 0 C0.99 0.33 1.98 0.66 3 1 C3 1.99 3 2.98 3 4 C1.35 4.66 -0.3 5.32 -2 6 C-1.125 1.125 -1.125 1.125 0 0 Z " fill="#4474AD" transform="translate(299,421)"/>
<path d="M0 0 C0.33 1.32 0.66 2.64 1 4 C0.34 4 -0.32 4 -1 4 C-0.9175 4.7425 -0.835 5.485 -0.75 6.25 C-1.07105184 9.78157027 -2.35265617 10.76630364 -5 13 C-4.54803755 11.39402675 -4.08817673 9.79027492 -3.625 8.1875 C-3.36976563 7.29417969 -3.11453125 6.40085938 -2.8515625 5.48046875 C-2 3 -2 3 0 0 Z " fill="#FCEFB3" transform="translate(490,195)"/>
<path d="M0 0 C-1.1875 1.5625 -1.1875 1.5625 -3 3 C-5.625 2.8125 -5.625 2.8125 -8 2 C-8.33 1.34 -8.66 0.68 -9 0 C-5.62182575 -0.84454356 -3.32534757 -1.10844919 0 0 Z " fill="#4170AA" transform="translate(430,131)"/>
<path d="M0 0 C0.66 0.33 1.32 0.66 2 1 C1.34 2.32 0.68 3.64 0 5 C-0.66 5 -1.32 5 -2 5 C-2 7.31 -2 9.62 -2 12 C-2.33 12 -2.66 12 -3 12 C-3.08131463 10.56344146 -3.13933559 9.1255517 -3.1875 7.6875 C-3.22230469 6.88699219 -3.25710938 6.08648437 -3.29296875 5.26171875 C-2.93801608 2.52148416 -2.10633718 1.70828921 0 0 Z " fill="#567DAA" transform="translate(354,106)"/>
<path d="M0 0 C1.15957207 3.47871621 0.77456651 4.34219645 -0.4375 7.6875 C-0.72496094 8.49574219 -1.01242187 9.30398438 -1.30859375 10.13671875 C-1.65083984 11.05904297 -1.65083984 11.05904297 -2 12 C-2.33 12 -2.66 12 -3 12 C-3.08131463 10.56344146 -3.13933559 9.1255517 -3.1875 7.6875 C-3.22230469 6.88699219 -3.25710938 6.08648437 -3.29296875 5.26171875 C-2.93801608 2.52148416 -2.10633718 1.70828921 0 0 Z " fill="#F2C332" transform="translate(466,248)"/>
<path d="M0 0 C0.66 0 1.32 0 2 0 C1.55123384 1.64846769 1.09069512 3.29373455 0.625 4.9375 C0.36976563 5.85402344 0.11453125 6.77054688 -0.1484375 7.71484375 C-1 10 -1 10 -3 11 C-2.67 8.03 -2.34 5.06 -2 2 C-1.34 2 -0.68 2 0 2 C0 1.34 0 0.68 0 0 Z " fill="#FCF0B2" transform="translate(463,230)"/>
<path d="M0 0 C0.99 0 1.98 0 3 0 C2.5206753 4.31392226 1.2542015 6.16569547 -2 9 C-2 7.35 -2 5.7 -2 4 C-1.34 3.67 -0.68 3.34 0 3 C0 2.01 0 1.02 0 0 Z " fill="#EFC336" transform="translate(517,142)"/>
<path d="M0 0 C0.66 0.33 1.32 0.66 2 1 C1.34 3.31 0.68 5.62 0 8 C-0.33 7.01 -0.66 6.02 -1 5 C-1.66 5 -2.32 5 -3 5 C-3 4.01 -3 3.02 -3 2 C-2.01 1.34 -1.02 0.68 0 0 Z " fill="#467CBA" transform="translate(806,258)"/>
<path d="M0 0 C0.99 0.33 1.98 0.66 3 1 C2.34 3.31 1.68 5.62 1 8 C0.34 8 -0.32 8 -1 8 C-0.67 5.36 -0.34 2.72 0 0 Z " fill="#497DBF" transform="translate(434,121)"/>
<path d="M0 0 C0.66 0 1.32 0 2 0 C1.34 3.63 0.68 7.26 0 11 C-2 8 -2 8 -1.7578125 5.95703125 C-1.171875 3.97135417 -0.5859375 1.98567708 0 0 Z " fill="#567AA6" transform="translate(283,431)"/>
<path d="M0 0 C2.475 0.495 2.475 0.495 5 1 C5.33 1.99 5.66 2.98 6 4 C6.66 4 7.32 4 8 4 C7.67 5.32 7.34 6.64 7 8 C6.401875 7.236875 5.80375 6.47375 5.1875 5.6875 C3.53040668 3.6516425 1.89702326 1.8021721 0 0 Z " fill="#4273B1" transform="translate(82,423)"/>
<path d="M0 0 C1.65 0 3.3 0 5 0 C5 0.66 5 1.32 5 2 C6.32 2.33 7.64 2.66 9 3 C6.36 3.33 3.72 3.66 1 4 C0.67 2.68 0.34 1.36 0 0 Z " fill="#CEE1EC" transform="translate(198,441)"/>
<path d="M0 0 C1.32 0.66 2.64 1.32 4 2 C4 3.32 4 4.64 4 6 C2 6 2 6 0.375 4.5 C-0.07875 4.005 -0.5325 3.51 -1 3 C-0.67 2.01 -0.34 1.02 0 0 Z " fill="#4272AB" transform="translate(171,429)"/>
<path d="M0 0 C0.6875 1.75 0.6875 1.75 1 4 C-0.3125 6.25 -0.3125 6.25 -2 8 C-2.66 8 -3.32 8 -4 8 C-2.87548273 5.0280615 -1.77706209 2.66559313 0 0 Z " fill="#FEF6C5" transform="translate(518,147)"/>
<path d="M0 0 C0.99 0.66 1.98 1.32 3 2 C3 2.66 3 3.32 3 4 C0.69 4 -1.62 4 -4 4 C-4 3.34 -4 2.68 -4 2 C-2.68 2 -1.36 2 0 2 C0 1.34 0 0.68 0 0 Z " fill="#6487AF" transform="translate(751,576)"/>
<path d="M0 0 C3.63 0 7.26 0 11 0 C11 0.33 11 0.66 11 1 C9.02 1 7.04 1 5 1 C4.67 1.99 4.34 2.98 4 4 C2.68 2.68 1.36 1.36 0 0 Z " fill="#C3DAED" transform="translate(123,426)"/>
<path d="M0 0 C0.33 0 0.66 0 1 0 C1.26252625 4.33168317 0.29243536 7.8803623 -1 12 C-1.33 12 -1.66 12 -2 12 C-2.28571429 3.42857143 -2.28571429 3.42857143 0 0 Z " fill="#F3BF20" transform="translate(438,318)"/>
<path d="M0 0 C3.3 0 6.6 0 10 0 C9.67 1.65 9.34 3.3 9 5 C8.34 4.01 7.68 3.02 7 2 C3.43230448 1.26393501 3.43230448 1.26393501 0 1 C0 0.67 0 0.34 0 0 Z " fill="#DEF3FD" transform="translate(422,123)"/>
</svg>
